ISO-10303-21;
HEADER;
FILE_DESCRIPTION (( 'STEP AP214' ),
    '1' );
FILE_NAME ('2096102437985599488.STP',
    '2026-09-05T05:05:40',
    ( '' ),
    ( 'Administrator' ),
    'FaSTEP 2.0',
    'Forface 3D 2026',
    '' );
FILE_SCHEMA (( 'AUTOMOTIVE_DESIGN' ));
ENDSEC;

DATA;
#1 = CARTESIAN_POINT ( 'NONE',  ( -18.5, 15, 8 ) ) ;
#2 = ORIENTED_EDGE ( 'NONE', *, *, #267, .F. ) ;
#3 = CARTESIAN_POINT ( 'NONE',  ( 20, 18, 20 ) ) ;
#4 = VERTEX_POINT ( 'NONE', #1103 ) ;
#5 = CARTESIAN_POINT ( 'NONE',  ( 22.00000000000000355, -14.49999999999999467, 3.000000000000000000 ) ) ;
#6 = AXIS2_PLACEMENT_3D ( 'NONE', #1164, #41, #1363 ) ;
#7 = CARTESIAN_POINT ( 'NONE',  ( 20, 15, 21.5 ) ) ;
#8 = AXIS2_PLACEMENT_3D ( 'NONE', #583, #804, #596 ) ;
#9 = CARTESIAN_POINT ( 'NONE',  ( 26.00000000000000355, -14.49999999999999467, 3.000000000000000000 ) ) ;
#10 = AXIS2_PLACEMENT_3D ( 'NONE', #147, #139, #877 ) ;
#11 = ORIENTED_EDGE ( 'NONE', *, *, #111, .F. ) ;
#12 = EDGE_CURVE ( 'NONE', #1392, #83, #980, .T. ) ;
#13 = DIRECTION ( 'NONE',  ( 5.782411586589356653E-16, 0.000000000000000000, 1.000000000000000000 ) ) ;
#14 = ORIENTED_EDGE ( 'NONE', *, *, #39, .T. ) ;
#15 = FACE_BOUND ( 'NONE', #767, .T. ) ;
#16 = CARTESIAN_POINT ( 'NONE',  ( 21.5, 15, 8 ) ) ;
#17 = FACE_OUTER_BOUND ( 'NONE', #1334, .T. ) ;
#18 = CIRCLE ( 'NONE', #292, 1.500000000000001332 ) ;
#19 = VERTEX_POINT ( 'NONE', #1412 ) ;
#20 = CARTESIAN_POINT ( 'NONE',  ( -21.499999999999996, 15, 8 ) ) ;
#21 = AXIS2_PLACEMENT_3D ( 'NONE', #359, #150, #141 ) ;
#22 = EDGE_CURVE ( 'NONE', #533, #1373, #426, .T. ) ;
#23 = ORIENTED_EDGE ( 'NONE', *, *, #686, .T. ) ;
#24 = CARTESIAN_POINT ( 'NONE',  ( 35.00000000000000711, 18.00000000000000000, 28.00000000000000000 ) ) ;
#25 = CARTESIAN_POINT ( 'NONE',  ( 0.000000000000000000, 0.000000000000000000, 28.00000000000000000 ) ) ;
#26 = CARTESIAN_POINT ( 'NONE',  ( 21.99999999999999645, 9.999999999999971578, 0.000000000000000000 ) ) ;
#27 = VERTEX_POINT ( 'NONE', #214 ) ;
#28 = DIRECTION ( 'NONE',  ( -0.000000000000000000, 1.000000000000000000, -0.000000000000000000 ) ) ;
#29 = ORIENTED_EDGE ( 'NONE', *, *, #1250, .F. ) ;
#30 = LINE ( 'NONE', #1343, #590 ) ;
#31 = EDGE_CURVE ( 'NONE', #708, #309, #1230, .T. ) ;
#32 = DIRECTION ( 'NONE',  ( 0.000000000000000000, -1.000000000000000000, 0.000000000000000000 ) ) ;
#33 = EDGE_CURVE ( 'NONE', #1313, #675, #1190, .T. ) ;
#34 = AXIS2_PLACEMENT_3D ( 'NONE', #1, #225, #122 ) ;
#35 = DIRECTION ( 'NONE',  ( 0.000000000000000000, -0.000000000000000000, -1.000000000000000000 ) ) ;
#36 = VERTEX_POINT ( 'NONE', #1182 ) ;
#37 = CARTESIAN_POINT ( 'NONE',  ( -20.000000000000004, 15, 8 ) ) ;
#38 = DIRECTION ( 'NONE',  ( 1.000000000000000000, 0.000000000000000000, 0.000000000000000000 ) ) ;
#39 = EDGE_CURVE ( 'NONE', #746, #4, #771, .T. ) ;
#40 = APPLICATION_PROTOCOL_DEFINITION ( 'draft international standard', 'automotive_design', 1998, #423 ) ;
#41 = DIRECTION ( 'NONE',  ( 0.000000000000000000, 0.000000000000000000, 1.000000000000000000 ) ) ;
#42 = ORIENTED_EDGE ( 'NONE', *, *, #965, .F. ) ;
#43 = CARTESIAN_POINT ( 'NONE',  ( -40.00000000000000000, 15.00000000000000000, 3.000000000000000444 ) ) ;
#44 = CIRCLE ( 'NONE', #817, 1.500000000000025535 ) ;
#45 = LINE ( 'NONE', #580, #269 ) ;
#46 = CARTESIAN_POINT ( 'NONE',  ( 35.00000000000000000, 18.00000000000000000, 13.00000000000000178 ) ) ;
#47 = ORIENTED_EDGE ( 'NONE', *, *, #219, .T. ) ;
#48 = DIRECTION ( 'NONE',  ( -1.000000000000000000, -4.336808689942017736E-16, -0.000000000000000000 ) ) ;
#49 = DIRECTION ( 'NONE',  ( 0.000000000000000000, 0.000000000000000000, 1.000000000000000000 ) ) ;
#50 = ORIENTED_EDGE ( 'NONE', *, *, #1411, .T. ) ;
#51 = AXIS2_PLACEMENT_3D ( 'NONE', #541, #299, #655 ) ;
#52 = DIRECTION ( 'NONE',  ( 0.000000000000000000, 1.000000000000000000, 0.000000000000000000 ) ) ;
#53 = VECTOR ( 'NONE', #989, 1000.000000000000000 ) ;
#54 = EDGE_CURVE ( 'NONE', #708, #950, #331, .T. ) ;
#55 = VERTEX_POINT ( 'NONE', #1097 ) ;
#56 = LINE ( 'NONE', #1249, #703 ) ;
#57 = CARTESIAN_POINT ( 'NONE',  ( 18.500000000000004, 18, 20 ) ) ;
#58 = ORIENTED_EDGE ( 'NONE', *, *, #1348, .F. ) ;
#59 = CARTESIAN_POINT ( 'NONE',  ( 21.99999999999999645, 13.00000000000002665, 0.000000000000000000 ) ) ;
#60 = ORIENTED_EDGE ( 'NONE', *, *, #1368, .T. ) ;
#61 = CARTESIAN_POINT ( 'NONE',  ( -22.00000000000000355, 11.50000000000000000, 3.000000000000000000 ) ) ;
#62 = EDGE_CURVE ( 'NONE', #1253, #55, #18, .T. ) ;
#63 = DIRECTION ( 'NONE',  ( 0.000000000000000000, 1.000000000000000000, 0.000000000000000000 ) ) ;
#64 = VECTOR ( 'NONE', #756, 1000.000000000000000 ) ;
#65 = EDGE_LOOP ( 'NONE', ( #757, #1362, #1279, #231 ) ) ;
#66 = PLANE ( 'NONE',  #1063 ) ;
#67 = ORIENTED_EDGE ( 'NONE', *, *, #840, .F. ) ;
#68 = DIRECTION ( 'NONE',  ( -0.000000000000000000, 1.000000000000000000, -0.000000000000000000 ) ) ;
#69 = CARTESIAN_POINT ( 'NONE',  ( 35.00000000000000000, 15.00000000000000000, 13.00000000000000178 ) ) ;
#70 = EDGE_CURVE ( 'NONE', #479, #967, #368, .T. ) ;
#71 = ORIENTED_EDGE ( 'NONE', *, *, #33, .F. ) ;
#72 = LINE ( 'NONE', #1287, #874 ) ;
#73 = CIRCLE ( 'NONE', #878, 1.500000000000001332 ) ;
#74 = ORIENTED_EDGE ( 'NONE', *, *, #1089, .T. ) ;
#75 = DIRECTION ( 'NONE',  ( -0.000000000000000000, -0.000000000000000000, -1.000000000000000000 ) ) ;
#76 = DIRECTION ( 'NONE',  ( -1.000000000000000000, -0.000000000000000000, -0.000000000000000000 ) ) ;
#77 = VECTOR ( 'NONE', #984, 1000.000000000000000 ) ;
#78 = ORIENTED_EDGE ( 'NONE', *, *, #289, .F. ) ;
#79 = EDGE_CURVE ( 'NONE', #1255, #1388, #453, .T. ) ;
#80 = DIRECTION ( 'NONE',  ( -0.000000000000000000, 1.000000000000000000, -0.000000000000000000 ) ) ;
#81 = ORIENTED_EDGE ( 'NONE', *, *, #753, .F. ) ;
#82 = PLANE ( 'NONE',  #1360 ) ;
#83 = VERTEX_POINT ( 'NONE', #567 ) ;
#84 = LINE ( 'NONE', #880, #134 ) ;
#85 = ORIENTED_EDGE ( 'NONE', *, *, #1301, .T. ) ;
#86 = AXIS2_PLACEMENT_3D ( 'NONE', #337, #98, #536 ) ;
#87 = EDGE_CURVE ( 'NONE', #670, #1057, #1121, .T. ) ;
#88 = DIRECTION ( 'NONE',  ( 0.000000000000000000, 1.000000000000000000, 0.000000000000000000 ) ) ;
#89 = EDGE_LOOP ( 'NONE', ( #71, #124, #907, #1205 ) ) ;
#90 = LINE ( 'NONE', #326, #189 ) ;
#91 = FACE_BOUND ( 'NONE', #886, .T. ) ;
#92 = ORIENTED_EDGE ( 'NONE', *, *, #159, .F. ) ;
#93 = DIRECTION ( 'NONE',  ( -0.000000000000000000, -0.000000000000000000, -1.000000000000000000 ) ) ;
#94 = ORIENTED_EDGE ( 'NONE', *, *, #281, .T. ) ;
#95 = LINE ( 'NONE', #534, #327 ) ;
#96 = ADVANCED_FACE ( 'NONE', ( #889 ), #1232, .T. ) ;
#97 = CIRCLE ( 'NONE', #165, 1.500000000000001332 ) ;
#98 = DIRECTION ( 'NONE',  ( 0.000000000000000000, 0.000000000000000000, 1.000000000000000000 ) ) ;
#99 = ORIENTED_EDGE ( 'NONE', *, *, #70, .T. ) ;
#100 = CARTESIAN_POINT ( 'NONE',  ( -21.99999999999999645, -14.49999999999999822, 3.000000000000000000 ) ) ;
#101 = ORIENTED_EDGE ( 'NONE', *, *, #788, .T. ) ;
#102 = DIRECTION ( 'NONE',  ( 0.000000000000000000, 1.000000000000000000, 0.000000000000000000 ) ) ;
#103 = PLANE ( 'NONE',  #409 ) ;
#104 = ADVANCED_FACE ( 'NONE', ( #559 ), #470, .F. ) ;
#105 = ORIENTED_EDGE ( 'NONE', *, *, #865, .F. ) ;
#106 = LINE ( 'NONE', #982, #53 ) ;
#107 = ORIENTED_EDGE ( 'NONE', *, *, #222, .F. ) ;
#108 = CARTESIAN_POINT ( 'NONE',  ( 26.00000000000000355, -12.99999999999999822, 0.000000000000000000 ) ) ;
#109 = ORIENTED_EDGE ( 'NONE', *, *, #87, .T. ) ;
#110 = DIRECTION ( 'NONE',  ( 0.000000000000000000, 0.000000000000000000, -1.000000000000000000 ) ) ;
#111 = EDGE_CURVE ( 'NONE', #451, #126, #1006, .T. ) ;
#112 = CARTESIAN_POINT ( 'NONE',  ( -22.00000000000000355, 11.50000000000000000, 3.000000000000000000 ) ) ;
#113 = EDGE_CURVE ( 'NONE', #287, #489, #44, .T. ) ;
#114 = DIRECTION ( 'NONE',  ( -0.000000000000000000, 1.000000000000000000, -0.000000000000000000 ) ) ;
#115 = ORIENTED_EDGE ( 'NONE', *, *, #650, .F. ) ;
#116 = CARTESIAN_POINT ( 'NONE',  ( 18.500000000000004, 15, 8 ) ) ;
#117 = ORIENTED_EDGE ( 'NONE', *, *, #981, .T. ) ;
#118 = FACE_OUTER_BOUND ( 'NONE', #666, .T. ) ;
#119 = VECTOR ( 'NONE', #1254, 1000.000000000000000 ) ;
#120 = DIRECTION ( 'NONE',  ( 1.000000000000000000, 0.000000000000000000, 0.000000000000000000 ) ) ;
#121 = VECTOR ( 'NONE', #1273, 1000.000000000000000 ) ;
#122 = DIRECTION ( 'NONE',  ( -0.000000000000000000, 0.000000000000000000, -1.000000000000000000 ) ) ;
#123 = EDGE_CURVE ( 'NONE', #834, #1099, #702, .T. ) ;
#124 = ORIENTED_EDGE ( 'NONE', *, *, #1175, .T. ) ;
#125 = CARTESIAN_POINT ( 'NONE',  ( -26.00000000000000000, 13.00000000000000178, 3.000000000000000000 ) ) ;
#126 = VERTEX_POINT ( 'NONE', #672 ) ;
#127 = DIRECTION ( 'NONE',  ( 0.000000000000000000, 0.000000000000000000, 1.000000000000000000 ) ) ;
#128 = CARTESIAN_POINT ( 'NONE',  ( -25.99999999999999289, -14.49999999999999822, 3.000000000000000000 ) ) ;
#129 = CARTESIAN_POINT ( 'NONE',  ( 21.5, 18, 8 ) ) ;
#130 = AXIS2_PLACEMENT_3D ( 'NONE', #273, #279, #1390 ) ;
#131 = EDGE_CURVE ( 'NONE', #691, #19, #696, .T. ) ;
#132 = ORIENTED_EDGE ( 'NONE', *, *, #537, .F. ) ;
#133 = DIRECTION ( 'NONE',  ( -0.000000000000000000, -0.000000000000000000, -1.000000000000000000 ) ) ;
#134 = VECTOR ( 'NONE', #213, 1000.000000000000000 ) ;
#135 = ORIENTED_EDGE ( 'NONE', *, *, #799, .F. ) ;
#136 = DIRECTION ( 'NONE',  ( -1.000000000000000000, -1.826024711554533913E-16, 0.000000000000000000 ) ) ;
#137 = CARTESIAN_POINT ( 'NONE',  ( 40.00000000000000000, 17.99999999999999645, 0.000000000000000000 ) ) ;
#138 = DIRECTION ( 'NONE',  ( 1.000000000000000000, 0.000000000000000000, 0.000000000000000000 ) ) ;
#139 = DIRECTION ( 'NONE',  ( 0.000000000000000000, 1.000000000000000000, 0.000000000000000000 ) ) ;
#140 = ORIENTED_EDGE ( 'NONE', *, *, #753, .T. ) ;
#141 = DIRECTION ( 'NONE',  ( 0.000000000000000000, 0.000000000000000000, 1.000000000000000000 ) ) ;
#142 = ADVANCED_FACE ( 'NONE', ( #1217 ), #1223, .T. ) ;
#143 = LINE ( 'NONE', #360, #363 ) ;
#144 = AXIS2_PLACEMENT_3D ( 'NONE', #3, #564, #570 ) ;
#145 = AXIS2_PLACEMENT_3D ( 'NONE', #1400, #517, #208 ) ;
#146 = CARTESIAN_POINT ( 'NONE',  ( 0.000000000000000000, 0.000000000000000000, 0.000000000000000000 ) ) ;
#147 = CARTESIAN_POINT ( 'NONE',  ( -25.99999999999998934, -16.00000000000000000, 3.000000000000000000 ) ) ;
#148 = CIRCLE ( 'NONE', #303, 1.500000000000001332 ) ;
#149 = ORIENTED_EDGE ( 'NONE', *, *, #815, .T. ) ;
#150 = DIRECTION ( 'NONE',  ( -0.000000000000000000, 1.000000000000000000, -0.000000000000000000 ) ) ;
#151 = DIRECTION ( 'NONE',  ( -0.000000000000000000, -0.000000000000000000, -1.000000000000000000 ) ) ;
#152 = DIRECTION ( 'NONE',  ( -0.000000000000000000, -0.000000000000000000, -1.000000000000000000 ) ) ;
#153 = CIRCLE ( 'NONE', #1251, 1.499999999999997780 ) ;
#154 = ORIENTED_EDGE ( 'NONE', *, *, #799, .T. ) ;
#155 = CYLINDRICAL_SURFACE ( 'NONE', #773, 1.500000000000001332 ) ;
#156 = CIRCLE ( 'NONE', #956, 1.499999999999997780 ) ;
#157 = LINE ( 'NONE', #286, #954 ) ;
#158 = ORIENTED_EDGE ( 'NONE', *, *, #664, .T. ) ;
#159 = EDGE_CURVE ( 'NONE', #55, #161, #45, .T. ) ;
#160 = CARTESIAN_POINT ( 'NONE',  ( -26.00000000000000000, 11.50000000000000000, 3.000000000000000000 ) ) ;
#161 = VERTEX_POINT ( 'NONE', #896 ) ;
#162 = CARTESIAN_POINT ( 'NONE',  ( 21.99999999999999645, 13.00000000000002665, 3.000000000000000000 ) ) ;
#163 = DIRECTION ( 'NONE',  ( -0.000000000000000000, -0.000000000000000000, -1.000000000000000000 ) ) ;
#164 = ORIENTED_EDGE ( 'NONE', *, *, #683, .T. ) ;
#165 = AXIS2_PLACEMENT_3D ( 'NONE', #282, #717, #722 ) ;
#166 = EDGE_CURVE ( 'NONE', #413, #618, #143, .T. ) ;
#167 = CARTESIAN_POINT ( 'NONE',  ( -25.99999999999999289, -13.00000000000000000, 0.000000000000000000 ) ) ;
#168 = ORIENTED_EDGE ( 'NONE', *, *, #12, .T. ) ;
#169 = DIRECTION ( 'NONE',  ( -0.000000000000000000, -0.000000000000000000, -1.000000000000000000 ) ) ;
#170 = CARTESIAN_POINT ( 'NONE',  ( 21.99999999999999645, 13.00000000000002842, 0.000000000000000000 ) ) ;
#171 = ORIENTED_EDGE ( 'NONE', *, *, #22, .F. ) ;
#172 = DIRECTION ( 'NONE',  ( 1.000000000000000000, 0.000000000000000000, 0.000000000000000000 ) ) ;
#173 = ADVANCED_FACE ( 'NONE', ( #574 ), #1013, .F. ) ;
#174 = EDGE_LOOP ( 'NONE', ( #841, #1110, #1091, #135 ) ) ;
#175 = DIRECTION ( 'NONE',  ( 0.000000000000000000, 0.000000000000000000, -1.000000000000000000 ) ) ;
#176 = EDGE_CURVE ( 'NONE', #270, #1179, #454, .T. ) ;
#177 = VECTOR ( 'NONE', #781, 1000.000000000000000 ) ;
#178 = CARTESIAN_POINT ( 'NONE',  ( 20, 15, 8 ) ) ;
#179 = VECTOR ( 'NONE', #719, 1000.000000000000000 ) ;
#180 = ORIENTED_EDGE ( 'NONE', *, *, #369, .T. ) ;
#181 = DIRECTION ( 'NONE',  ( 1.000000000000000000, 0.000000000000000000, 0.000000000000000000 ) ) ;
#182 = ORIENTED_EDGE ( 'NONE', *, *, #833, .T. ) ;
#183 = CARTESIAN_POINT ( 'NONE',  ( 21.500000000000004, 15, 20 ) ) ;
#184 = CARTESIAN_POINT ( 'NONE',  ( -40.00000000000000000, 18.00000000000000000, 0.000000000000000000 ) ) ;
#185 = EDGE_CURVE ( 'NONE', #4, #953, #909, .T. ) ;
#186 = ADVANCED_BREP_SHAPE_REPRESENTATION ( '2096102437985599488', ( #1320, #1107 ), #556 ) ;
#187 = ORIENTED_EDGE ( 'NONE', *, *, #325, .F. ) ;
#188 = LINE ( 'NONE', #1386, #900 ) ;
#189 = VECTOR ( 'NONE', #437, 1000.000000000000000 ) ;
#190 = ORIENTED_EDGE ( 'NONE', *, *, #1411, .F. ) ;
#191 = AXIS2_PLACEMENT_3D ( 'NONE', #782, #1122, #340 ) ;
#192 = DIRECTION ( 'NONE',  ( -0.000000000000000000, -0.000000000000000000, -1.000000000000000000 ) ) ;
#193 = LINE ( 'NONE', #764, #64 ) ;
#194 = VECTOR ( 'NONE', #1276, 1000.000000000000000 ) ;
#195 = ORIENTED_EDGE ( 'NONE', *, *, #325, .T. ) ;
#196 = DIRECTION ( 'NONE',  ( -1.000000000000000000, 0.000000000000000000, 0.000000000000000000 ) ) ;
#197 = VERTEX_POINT ( 'NONE', #259 ) ;
#198 = CARTESIAN_POINT ( 'NONE',  ( -21.99999999999999645, -14.49999999999999822, 3.000000000000000000 ) ) ;
#199 = DIRECTION ( 'NONE',  ( -2.891205793294678326E-16, 0.000000000000000000, -1.000000000000000000 ) ) ;
#200 = CARTESIAN_POINT ( 'NONE',  ( 20, 15, 20 ) ) ;
#201 = VECTOR ( 'NONE', #621, 1000.000000000000000 ) ;
#202 = CARTESIAN_POINT ( 'NONE',  ( -21.99999999999998934, -16.00000000000000000, 0.000000000000000000 ) ) ;
#203 = EDGE_CURVE ( 'NONE', #126, #248, #1136, .T. ) ;
#204 = EDGE_LOOP ( 'NONE', ( #187, #459, #620, #735, #516, #298 ) ) ;
#205 = FACE_OUTER_BOUND ( 'NONE', #923, .T. ) ;
#206 = LINE ( 'NONE', #971, #251 ) ;
#207 = ORIENTED_EDGE ( 'NONE', *, *, #674, .F. ) ;
#208 = DIRECTION ( 'NONE',  ( 1.000000000000000000, 0.000000000000000000, 0.000000000000000000 ) ) ;
#209 = EDGE_CURVE ( 'NONE', #834, #430, #915, .T. ) ;
#210 = ORIENTED_EDGE ( 'NONE', *, *, #369, .F. ) ;
#211 = PLANE ( 'NONE',  #739 ) ;
#212 = AXIS2_PLACEMENT_3D ( 'NONE', #1323, #568, #897 ) ;
#213 = DIRECTION ( 'NONE',  ( -0.000000000000000000, -0.000000000000000000, -1.000000000000000000 ) ) ;
#214 = CARTESIAN_POINT ( 'NONE',  ( -21.499999999999996, 15.000000000000004, 20.000000000000004 ) ) ;
#215 = CIRCLE ( 'NONE', #144, 1.499999999999997780 ) ;
#216 = FACE_BOUND ( 'NONE', #391, .T. ) ;
#217 = VERTEX_POINT ( 'NONE', #266 ) ;
#218 = DIRECTION ( 'NONE',  ( 0.000000000000000000, -0.000000000000000000, 1.000000000000000000 ) ) ;
#219 = EDGE_CURVE ( 'NONE', #217, #1392, #157, .T. ) ;
#220 = VERTEX_POINT ( 'NONE', #1367 ) ;
#221 = CYLINDRICAL_SURFACE ( 'NONE', #545, 1.499999999999997780 ) ;
#222 = EDGE_CURVE ( 'NONE', #1255, #930, #153, .T. ) ;
#223 = ORIENTED_EDGE ( 'NONE', *, *, #380, .T. ) ;
#224 = AXIS2_PLACEMENT_3D ( 'NONE', #829, #390, #1032 ) ;
#225 = DIRECTION ( 'NONE',  ( 1.000000000000000000, 0.000000000000000000, -0.000000000000000000 ) ) ;
#226 = ORIENTED_EDGE ( 'NONE', *, *, #166, .T. ) ;
#227 = CARTESIAN_POINT ( 'NONE',  ( 22.00000000000000355, -15.99999999999999289, 3.000000000000000000 ) ) ;
#228 = ORIENTED_EDGE ( 'NONE', *, *, #1321, .F. ) ;
#229 = LINE ( 'NONE', #688, #478 ) ;
#230 = EDGE_CURVE ( 'NONE', #55, #1179, #814, .T. ) ;
#231 = ORIENTED_EDGE ( 'NONE', *, *, #965, .T. ) ;
#232 = DIRECTION ( 'NONE',  ( -1.000000000000000000, 0.000000000000000000, 0.000000000000000000 ) ) ;
#233 = EDGE_LOOP ( 'NONE', ( #58, #975, #540, #983 ) ) ;
#234 = DIRECTION ( 'NONE',  ( 4.336808689942017736E-16, -1.000000000000000000, 0.000000000000000000 ) ) ;
#235 = VERTEX_POINT ( 'NONE', #720 ) ;
#236 = CARTESIAN_POINT ( 'NONE',  ( -21.499999999999996, 15, 8 ) ) ;
#237 = AXIS2_PLACEMENT_3D ( 'NONE', #942, #920, #379 ) ;
#238 = DIRECTION ( 'NONE',  ( 1.000000000000000000, 0.000000000000000000, 0.000000000000000000 ) ) ;
#239 = VECTOR ( 'NONE', #729, 1000.000000000000000 ) ;
#240 = EDGE_CURVE ( 'NONE', #530, #562, #410, .T. ) ;
#241 = ORIENTED_EDGE ( 'NONE', *, *, #823, .T. ) ;
#242 = LINE ( 'NONE', #227, #77 ) ;
#243 = ORIENTED_EDGE ( 'NONE', *, *, #31, .F. ) ;
#244 = CARTESIAN_POINT ( 'NONE',  ( 21.99999999999999645, 11.49999999999999822, 3.000000000000000000 ) ) ;
#245 = DIRECTION ( 'NONE',  ( 1.000000000000000000, 0.000000000000000000, 0.000000000000000000 ) ) ;
#246 = FACE_OUTER_BOUND ( 'NONE', #1342, .T. ) ;
#247 = VECTOR ( 'NONE', #1417, 1000.000000000000000 ) ;
#248 = VERTEX_POINT ( 'NONE', #184 ) ;
#249 = ADVANCED_FACE ( 'NONE', ( #707 ), #300, .F. ) ;
#250 = CARTESIAN_POINT ( 'NONE',  ( -39.99999999999999289, -20.00000000000000355, 3.000000000000000000 ) ) ;
#251 = VECTOR ( 'NONE', #1410, 1000.000000000000000 ) ;
#252 = ORIENTED_EDGE ( 'NONE', *, *, #917, .T. ) ;
#253 = CARTESIAN_POINT ( 'NONE',  ( 33.20000000000000284, 15.00000000000000000, 16.59999999999999076 ) ) ;
#254 = DIRECTION ( 'NONE',  ( -1.000000000000000000, -0.000000000000000000, -0.000000000000000000 ) ) ;
#255 = FACE_OUTER_BOUND ( 'NONE', #776, .T. ) ;
#256 = EDGE_CURVE ( 'NONE', #930, #1215, #494, .T. ) ;
#257 = ORIENTED_EDGE ( 'NONE', *, *, #281, .F. ) ;
#258 = DIRECTION ( 'NONE',  ( 2.891205793294678326E-16, 0.000000000000000000, 1.000000000000000000 ) ) ;
#259 = CARTESIAN_POINT ( 'NONE',  ( -27.49999999999999289, -14.49999999999999822, 3.000000000000000000 ) ) ;
#260 = VECTOR ( 'NONE', #422, 1000.000000000000000 ) ;
#261 = CIRCLE ( 'NONE', #510, 1.500000000000001332 ) ;
#262 = DIRECTION ( 'NONE',  ( 0.000000000000000000, 0.000000000000000000, 1.000000000000000000 ) ) ;
#263 = CIRCLE ( 'NONE', #1019, 1.500000000000001332 ) ;
#264 = ORIENTED_EDGE ( 'NONE', *, *, #1244, .T. ) ;
#265 = CARTESIAN_POINT ( 'NONE',  ( 22.00000000000000355, -12.99999999999999822, 3.000000000000000000 ) ) ;
#266 = CARTESIAN_POINT ( 'NONE',  ( 21.99999999999999645, 9.999999999999971578, 3.000000000000000000 ) ) ;
#267 = EDGE_CURVE ( 'NONE', #445, #464, #623, .T. ) ;
#268 = LINE ( 'NONE', #1145, #582 ) ;
#269 = VECTOR ( 'NONE', #679, 1000.000000000000000 ) ;
#270 = VERTEX_POINT ( 'NONE', #1060 ) ;
#271 = CARTESIAN_POINT ( 'NONE',  ( -26.00000000000000000, 11.50000000000000000, 3.000000000000000000 ) ) ;
#272 = VECTOR ( 'NONE', #1173, 1000.000000000000000 ) ;
#273 = CARTESIAN_POINT ( 'NONE',  ( 20, 15, 20 ) ) ;
#274 = EDGE_CURVE ( 'NONE', #633, #315, #952, .T. ) ;
#275 = ORIENTED_EDGE ( 'NONE', *, *, #240, .T. ) ;
#276 = DIRECTION ( 'NONE',  ( -0.000000000000000000, 1.000000000000000000, -0.000000000000000000 ) ) ;
#277 = ORIENTED_EDGE ( 'NONE', *, *, #1104, .F. ) ;
#278 = DIRECTION ( 'NONE',  ( -0.000000000000000000, -0.000000000000000000, -1.000000000000000000 ) ) ;
#279 = DIRECTION ( 'NONE',  ( -0.000000000000000000, 1.000000000000000000, -0.000000000000000000 ) ) ;
#280 = ORIENTED_EDGE ( 'NONE', *, *, #872, .F. ) ;
#281 = EDGE_CURVE ( 'NONE', #428, #1030, #314, .T. ) ;
#282 = CARTESIAN_POINT ( 'NONE',  ( -26.00000000000000000, 11.50000000000000000, 3.000000000000000000 ) ) ;
#283 = ADVANCED_FACE ( 'NONE', ( #1039 ), #594, .F. ) ;
#284 = ORIENTED_EDGE ( 'NONE', *, *, #885, .F. ) ;
#285 = CARTESIAN_POINT ( 'NONE',  ( -21.5, 18, 8 ) ) ;
#286 = CARTESIAN_POINT ( 'NONE',  ( 21.99999999999999645, 9.999999999999971578, 3.000000000000000000 ) ) ;
#287 = VERTEX_POINT ( 'NONE', #170 ) ;
#288 = DIRECTION ( 'NONE',  ( 0.000000000000000000, 0.000000000000000000, 1.000000000000000000 ) ) ;
#289 = EDGE_CURVE ( 'NONE', #562, #197, #1027, .T. ) ;
#290 = EDGE_LOOP ( 'NONE', ( #1123, #1288, #711, #1165, #333 ) ) ;
#291 = CARTESIAN_POINT ( 'NONE',  ( 40.00000000000000711, -20.00000000000000355, 0.000000000000000000 ) ) ;
#292 = AXIS2_PLACEMENT_3D ( 'NONE', #112, #987, #447 ) ;
#293 = DIRECTION ( 'NONE',  ( 1.000000000000000000, 0.000000000000000000, 0.000000000000000000 ) ) ;
#294 = VECTOR ( 'NONE', #416, 1000.000000000000000 ) ;
#295 = VERTEX_POINT ( 'NONE', #922 ) ;
#296 = LINE ( 'NONE', #628, #1262 ) ;
#297 = PRODUCT_DEFINITION_SHAPE ( 'NONE', 'NONE',  #1233 ) ;
#298 = ORIENTED_EDGE ( 'NONE', *, *, #990, .T. ) ;
#299 = DIRECTION ( 'NONE',  ( 0.000000000000000000, 1.000000000000000000, 0.000000000000000000 ) ) ;
#300 = CYLINDRICAL_SURFACE ( 'NONE', #130, 1.499999999999997780 ) ;
#301 = ORIENTED_EDGE ( 'NONE', *, *, #1134, .T. ) ;
#302 = DIRECTION ( 'NONE',  ( 0.8944271909999160775, 0.000000000000000000, -0.4472135954999575391 ) ) ;
#303 = AXIS2_PLACEMENT_3D ( 'NONE', #731, #548, #1397 ) ;
#304 = ORIENTED_EDGE ( 'NONE', *, *, #833, .F. ) ;
#305 = AXIS2_PLACEMENT_3D ( 'NONE', #412, #302, #635 ) ;
#306 = DIRECTION ( 'NONE',  ( 1.000000000000000000, 0.000000000000000000, 0.000000000000000000 ) ) ;
#307 = CARTESIAN_POINT ( 'NONE',  ( -18.5, 15, 20 ) ) ;
#308 = ADVANCED_FACE ( 'NONE', ( #1161 ), #1252, .T. ) ;
#309 = VERTEX_POINT ( 'NONE', #1361 ) ;
#310 = DIRECTION ( 'NONE',  ( 1.000000000000000000, 0.000000000000000000, 0.000000000000000000 ) ) ;
#311 = ORIENTED_EDGE ( 'NONE', *, *, #256, .F. ) ;
#312 = CARTESIAN_POINT ( 'NONE',  ( 22.00000000000000355, -15.99999999999999289, 0.000000000000000000 ) ) ;
#313 = CARTESIAN_POINT ( 'NONE',  ( 21.500000000000004, 18, 20 ) ) ;
#314 = CIRCLE ( 'NONE', #1120, 1.499999999999997780 ) ;
#315 = VERTEX_POINT ( 'NONE', #57 ) ;
#316 = AXIS2_PLACEMENT_3D ( 'NONE', #37, #473, #908 ) ;
#317 = EDGE_CURVE ( 'NONE', #953, #740, #455, .T. ) ;
#318 = SURFACE_STYLE_USAGE ( .BOTH. , #1294 ) ;
#319 = VERTEX_POINT ( 'NONE', #1382 ) ;
#320 = CARTESIAN_POINT ( 'NONE',  ( -18.5, 15, 8 ) ) ;
#321 = LINE ( 'NONE', #1202, #749 ) ;
#322 = ORIENTED_EDGE ( 'NONE', *, *, #335, .F. ) ;
#323 = CARTESIAN_POINT ( 'NONE',  ( 21.5, 15, 8 ) ) ;
#324 = ORIENTED_EDGE ( 'NONE', *, *, #840, .T. ) ;
#325 = EDGE_CURVE ( 'NONE', #1099, #336, #617, .T. ) ;
#326 = CARTESIAN_POINT ( 'NONE',  ( 33.20000000000000284, 18.00000000000000000, 16.59999999999999076 ) ) ;
#327 = VECTOR ( 'NONE', #970, 1000.000000000000000 ) ;
#328 = STYLED_ITEM ( 'NONE', ( #752 ), #1320 ) ;
#329 = ORIENTED_EDGE ( 'NONE', *, *, #54, .T. ) ;
#330 = CARTESIAN_POINT ( 'NONE',  ( -18.5, 18, 20 ) ) ;
#331 = LINE ( 'NONE', #7, #1004 ) ;
#332 = CIRCLE ( 'NONE', #943, 1.499999999999997780 ) ;
#333 = ORIENTED_EDGE ( 'NONE', *, *, #917, .F. ) ;
#334 = PLANE ( 'NONE',  #1239 ) ;
#335 = EDGE_CURVE ( 'NONE', #557, #319, #937, .T. ) ;
#336 = VERTEX_POINT ( 'NONE', #69 ) ;
#337 = CARTESIAN_POINT ( 'NONE',  ( -21.99999999999999645, -14.49999999999999822, 0.000000000000000000 ) ) ;
#338 = ORIENTED_EDGE ( 'NONE', *, *, #1387, .T. ) ;
#339 = AXIS2_PLACEMENT_3D ( 'NONE', #244, #1024, #1003 ) ;
#340 = DIRECTION ( 'NONE',  ( 1.000000000000000000, 0.000000000000000000, 0.000000000000000000 ) ) ;
#341 = VERTEX_POINT ( 'NONE', #507 ) ;
#342 = CARTESIAN_POINT ( 'NONE',  ( 20, 18, 21.5 ) ) ;
#343 = EDGE_LOOP ( 'NONE', ( #1268, #778, #1309, #366 ) ) ;
#344 = DIRECTION ( 'NONE',  ( -2.891205793294678326E-16, -0.000000000000000000, -1.000000000000000000 ) ) ;
#345 = EDGE_CURVE ( 'NONE', #946, #1065, #403, .T. ) ;
#346 = CARTESIAN_POINT ( 'NONE',  ( -25.99999999999999289, -13.00000000000000000, 3.000000000000000000 ) ) ;
#347 = LINE ( 'NONE', #658, #1061 ) ;
#348 = EDGE_LOOP ( 'NONE', ( #875, #721, #847, #92, #1228 ) ) ;
#349 = CARTESIAN_POINT ( 'NONE',  ( 21.99999999999999645, 13.00000000000002665, 3.000000000000000000 ) ) ;
#350 = EDGE_LOOP ( 'NONE', ( #1139, #101, #158, #2 ) ) ;
#351 = CYLINDRICAL_SURFACE ( 'NONE', #21, 1.499999999999997780 ) ;
#352 = CIRCLE ( 'NONE', #398, 1.500000000000029088 ) ;
#353 = CARTESIAN_POINT ( 'NONE',  ( -25.99999999999999289, -13.00000000000000000, 0.000000000000000000 ) ) ;
#354 = EDGE_CURVE ( 'NONE', #411, #287, #84, .T. ) ;
#355 = DIRECTION ( 'NONE',  ( -0.000000000000000000, -0.000000000000000000, -1.000000000000000000 ) ) ;
#356 = ORIENTED_EDGE ( 'NONE', *, *, #491, .F. ) ;
#357 = LINE ( 'NONE', #1220, #626 ) ;
#358 = EDGE_LOOP ( 'NONE', ( #1315, #1409, #168, #816, #995 ) ) ;
#359 = CARTESIAN_POINT ( 'NONE',  ( 20, 15, 8 ) ) ;
#360 = CARTESIAN_POINT ( 'NONE',  ( -25.99999999999998934, -16.00000000000000000, 3.000000000000000000 ) ) ;
#361 = FACE_OUTER_BOUND ( 'NONE', #174, .T. ) ;
#362 = EDGE_CURVE ( 'NONE', #428, #544, #193, .T. ) ;
#363 = VECTOR ( 'NONE', #238, 1000.000000000000000 ) ;
#364 = CARTESIAN_POINT ( 'NONE',  ( -21.499999999999996, 15, 8 ) ) ;
#365 = AXIS2_PLACEMENT_3D ( 'NONE', #1147, #712, #1160 ) ;
#366 = ORIENTED_EDGE ( 'NONE', *, *, #317, .F. ) ;
#367 = CARTESIAN_POINT ( 'NONE',  ( 40.00000000000000000, 17.99999999999999645, 3.000000000000000000 ) ) ;
#368 = LINE ( 'NONE', #809, #1069 ) ;
#369 = EDGE_CURVE ( 'NONE', #161, #1023, #431, .T. ) ;
#370 = CARTESIAN_POINT ( 'NONE',  ( 18.500000000000004, 15, 20 ) ) ;
#371 = ADVANCED_FACE ( 'NONE', ( #856 ), #438, .F. ) ;
#372 = ORIENTED_EDGE ( 'NONE', *, *, #33, .T. ) ;
#373 = LINE ( 'NONE', #1058, #797 ) ;
#374 = CARTESIAN_POINT ( 'NONE',  ( -35.00000000000000000, 15.00000000000000000, 0.000000000000000000 ) ) ;
#375 = VECTOR ( 'NONE', #520, 1000.000000000000000 ) ;
#376 = LINE ( 'NONE', #591, #1383 ) ;
#377 = AXIS2_PLACEMENT_3D ( 'NONE', #349, #234, #458 ) ;
#378 = ORIENTED_EDGE ( 'NONE', *, *, #240, .F. ) ;
#379 = DIRECTION ( 'NONE',  ( 0.000000000000000000, -0.000000000000000000, 1.000000000000000000 ) ) ;
#380 = EDGE_CURVE ( 'NONE', #557, #1253, #206, .T. ) ;
#381 = DIRECTION ( 'NONE',  ( -0.000000000000000000, -0.000000000000000000, -1.000000000000000000 ) ) ;
#382 = ORIENTED_EDGE ( 'NONE', *, *, #176, .F. ) ;
#383 = CARTESIAN_POINT ( 'NONE',  ( 22.00000000000000355, -14.49999999999999467, 3.000000000000000000 ) ) ;
#384 = AXIS2_PLACEMENT_3D ( 'NONE', #803, #1329, #795 ) ;
#385 = ORIENTED_EDGE ( 'NONE', *, *, #415, .T. ) ;
#386 = CYLINDRICAL_SURFACE ( 'NONE', #919, 1.499999999999997780 ) ;
#387 = AXIS2_PLACEMENT_3D ( 'NONE', #869, #960, #199 ) ;
#388 = PRODUCT_RELATED_PRODUCT_CATEGORY ( 'part', '', ( #845 ) ) ;
#389 = EDGE_CURVE ( 'NONE', #336, #1115, #1284, .T. ) ;
#390 = DIRECTION ( 'NONE',  ( 0.000000000000000000, 1.000000000000000000, 0.000000000000000000 ) ) ;
#391 = EDGE_LOOP ( 'NONE', ( #867, #959, #182, #860, #1384 ) ) ;
#392 = DIRECTION ( 'NONE',  ( 0.000000000000000000, 1.000000000000000000, 0.000000000000000000 ) ) ;
#393 = ORIENTED_EDGE ( 'NONE', *, *, #1183, .F. ) ;
#394 = PLANE ( 'NONE',  #810 ) ;
#395 = CARTESIAN_POINT ( 'NONE',  ( -20.000000000000004, 15, 8 ) ) ;
#396 = ORIENTED_EDGE ( 'NONE', *, *, #267, .T. ) ;
#397 = EDGE_CURVE ( 'NONE', #533, #1115, #1312, .T. ) ;
#398 = AXIS2_PLACEMENT_3D ( 'NONE', #611, #477, #1050 ) ;
#399 = LINE ( 'NONE', #1355, #512 ) ;
#400 = VECTOR ( 'NONE', #1009, 1000.000000000000000 ) ;
#401 = EDGE_LOOP ( 'NONE', ( #1101, #149, #74, #728 ) ) ;
#402 = LINE ( 'NONE', #183, #201 ) ;
#403 = LINE ( 'NONE', #1270, #294 ) ;
#404 = APPLICATION_CONTEXT ( 'automotive_design' ) ;
#405 = ORIENTED_EDGE ( 'NONE', *, *, #709, .T. ) ;
#406 = CARTESIAN_POINT ( 'NONE',  ( -26.00000000000000000, 11.50000000000000000, 3.000000000000000000 ) ) ;
#407 = VERTEX_POINT ( 'NONE', #313 ) ;
#408 = DIRECTION ( 'NONE',  ( -1.000000000000000000, 4.336808689942017736E-17, -0.000000000000000000 ) ) ;
#409 = AXIS2_PLACEMENT_3D ( 'NONE', #542, #979, #644 ) ;
#410 = LINE ( 'NONE', #944, #1366 ) ;
#411 = VERTEX_POINT ( 'NONE', #1189 ) ;
#412 = CARTESIAN_POINT ( 'NONE',  ( -33.20000000000001705, 15.00000000000000000, 16.59999999999999076 ) ) ;
#413 = VERTEX_POINT ( 'NONE', #523 ) ;
#414 = LINE ( 'NONE', #1066, #871 ) ;
#415 = EDGE_CURVE ( 'NONE', #1043, #445, #615, .T. ) ;
#416 = DIRECTION ( 'NONE',  ( -0.000000000000000000, -0.000000000000000000, -1.000000000000000000 ) ) ;
#417 = DIRECTION ( 'NONE',  ( 0.000000000000000000, 0.000000000000000000, 1.000000000000000000 ) ) ;
#418 = PLANE ( 'NONE',  #305 ) ;
#419 = AXIS2_PLACEMENT_3D ( 'NONE', #1314, #1098, #138 ) ;
#420 = VERTEX_POINT ( 'NONE', #1298 ) ;
#421 = CIRCLE ( 'NONE', #191, 1.500000000000029088 ) ;
#422 = DIRECTION ( 'NONE',  ( 1.000000000000000000, 0.000000000000000000, 0.000000000000000000 ) ) ;
#423 = APPLICATION_CONTEXT ( 'automotive_design' ) ;
#424 = DIRECTION ( 'NONE',  ( -1.000000000000000000, 0.000000000000000000, 0.000000000000000000 ) ) ;
#425 = EDGE_CURVE ( 'NONE', #730, #1292, #321, .T. ) ;
#426 = LINE ( 'NONE', #961, #247 ) ;
#427 = SURFACE_STYLE_FILL_AREA ( #1406 ) ;
#428 = VERTEX_POINT ( 'NONE', #1195 ) ;
#429 = LINE ( 'NONE', #1303, #629 ) ;
#430 = VERTEX_POINT ( 'NONE', #446 ) ;
#431 = LINE ( 'NONE', #849, #272 ) ;
#432 = ORIENTED_EDGE ( 'NONE', *, *, #1054, .F. ) ;
#433 = AXIS2_PLACEMENT_3D ( 'NONE', #236, #671, #258 ) ;
#434 = ADVANCED_FACE ( 'NONE', ( #632 ), #750, .F. ) ;
#435 = DIRECTION ( 'NONE',  ( 0.000000000000000000, 0.000000000000000000, 1.000000000000000000 ) ) ;
#436 = ORIENTED_EDGE ( 'NONE', *, *, #461, .T. ) ;
#437 = DIRECTION ( 'NONE',  ( -0.4472135954999577057, 0.000000000000000000, 0.8944271909999159664 ) ) ;
#438 = PLANE ( 'NONE',  #387 ) ;
#439 = CARTESIAN_POINT ( 'NONE',  ( -27.50000000000000000, 11.50000000000000000, 3.000000000000000000 ) ) ;
#440 = DIRECTION ( 'NONE',  ( 1.000000000000000000, 0.000000000000000000, 0.000000000000000000 ) ) ;
#441 = ADVANCED_FACE ( 'NONE', ( #529, #550, #91, #1088, #1290 ), #103, .T. ) ;
#442 = ORIENTED_EDGE ( 'NONE', *, *, #1376, .T. ) ;
#443 = CARTESIAN_POINT ( 'NONE',  ( 22.00000000000000355, -14.49999999999999467, 3.000000000000000000 ) ) ;
#444 = CIRCLE ( 'NONE', #921, 1.499999999999997780 ) ;
#445 = VERTEX_POINT ( 'NONE', #307 ) ;
#446 = CARTESIAN_POINT ( 'NONE',  ( -35.00000000000000000, 15.00000000000000000, 13.00000000000000711 ) ) ;
#447 = DIRECTION ( 'NONE',  ( 1.000000000000000000, 0.000000000000000000, 0.000000000000000000 ) ) ;
#448 = CIRCLE ( 'NONE', #6, 1.500000000000025535 ) ;
#449 = ORIENTED_EDGE ( 'NONE', *, *, #1266, .T. ) ;
#450 = CARTESIAN_POINT ( 'NONE',  ( -26.00000000000000000, 13.00000000000000178, 0.000000000000000000 ) ) ;
#451 = VERTEX_POINT ( 'NONE', #1081 ) ;
#452 = DIRECTION ( 'NONE',  ( 1.826024711554533913E-16, -1.000000000000000000, 0.000000000000000000 ) ) ;
#453 = LINE ( 'NONE', #16, #1141 ) ;
#454 = CIRCLE ( 'NONE', #1204, 1.500000000000001332 ) ;
#455 = CIRCLE ( 'NONE', #888, 1.499999999999997780 ) ;
#456 = PLANE ( 'NONE',  #212 ) ;
#457 = EDGE_LOOP ( 'NONE', ( #154, #1226, #1377, #854 ) ) ;
#458 = DIRECTION ( 'NONE',  ( 1.000000000000000000, 4.336808689942017736E-16, 0.000000000000000000 ) ) ;
#459 = ORIENTED_EDGE ( 'NONE', *, *, #123, .F. ) ;
#460 = CARTESIAN_POINT ( 'NONE',  ( -18.5, 18, 8 ) ) ;
#461 = EDGE_CURVE ( 'NONE', #1179, #1023, #1416, .T. ) ;
#462 = DIRECTION ( 'NONE',  ( -0.000000000000000000, 1.000000000000000000, -0.000000000000000000 ) ) ;
#463 = PLANE ( 'NONE',  #34 ) ;
#464 = VERTEX_POINT ( 'NONE', #330 ) ;
#465 = CARTESIAN_POINT ( 'NONE',  ( 33.20000000000000284, 15.00000000000000000, 16.59999999999999076 ) ) ;
#466 = ORIENTED_EDGE ( 'NONE', *, *, #1277, .F. ) ;
#467 = CARTESIAN_POINT ( 'NONE',  ( -26.00000000000000000, 9.999999999999998224, 3.000000000000000000 ) ) ;
#468 = AXIS2_PLACEMENT_3D ( 'NONE', #853, #1280, #181 ) ;
#469 = ADVANCED_FACE ( 'NONE', ( #966 ), #221, .F. ) ;
#470 = CYLINDRICAL_SURFACE ( 'NONE', #838, 1.500000000000001332 ) ;
#471 = CARTESIAN_POINT ( 'NONE',  ( -19.999999999999989, 15, 21.5 ) ) ;
#472 = ORIENTED_EDGE ( 'NONE', *, *, #12, .F. ) ;
#473 = DIRECTION ( 'NONE',  ( -0.000000000000000000, 1.000000000000000000, -0.000000000000000000 ) ) ;
#474 = CARTESIAN_POINT ( 'NONE',  ( -33.20000000000001705, 18.00000000000000000, 16.59999999999999076 ) ) ;
#475 = EDGE_CURVE ( 'NONE', #1292, #670, #1207, .T. ) ;
#476 = VECTOR ( 'NONE', #254, 1000.000000000000000 ) ;
#477 = DIRECTION ( 'NONE',  ( 0.000000000000000000, 0.000000000000000000, 1.000000000000000000 ) ) ;
#478 = VECTOR ( 'NONE', #344, 1000.000000000000000 ) ;
#479 = VERTEX_POINT ( 'NONE', #693 ) ;
#480 = CARTESIAN_POINT ( 'NONE',  ( 20.49999999999996803, 11.49999999999999822, 0.000000000000000000 ) ) ;
#481 = DIRECTION ( 'NONE',  ( -0.000000000000000000, -0.000000000000000000, -1.000000000000000000 ) ) ;
#482 =( NAMED_UNIT ( * ) SI_UNIT ( $, .STERADIAN. ) SOLID_ANGLE_UNIT ( ) );
#483 = ADVANCED_FACE ( 'NONE', ( #1111 ), #802, .F. ) ;
#484 = FACE_OUTER_BOUND ( 'NONE', #89, .T. ) ;
#485 = EDGE_LOOP ( 'NONE', ( #1090, #785, #519, #81 ) ) ;
#486 = CARTESIAN_POINT ( 'NONE',  ( -22.00000000000001776, -13.00000000000000000, 3.000000000000000000 ) ) ;
#487 = DIRECTION ( 'NONE',  ( 1.000000000000000000, 0.000000000000000000, 0.000000000000000000 ) ) ;
#488 = VECTOR ( 'NONE', #1289, 1000.000000000000000 ) ;
#489 = VERTEX_POINT ( 'NONE', #480 ) ;
#490 = CARTESIAN_POINT ( 'NONE',  ( -40.00000000000000000, 18.00000000000000000, 3.000000000000000000 ) ) ;
#491 = EDGE_CURVE ( 'NONE', #309, #1255, #229, .T. ) ;
#492 = EDGE_LOOP ( 'NONE', ( #551, #498, #522, #442, #625 ) ) ;
#493 = LINE ( 'NONE', #614, #179 ) ;
#494 = LINE ( 'NONE', #515, #748 ) ;
#495 = EDGE_LOOP ( 'NONE', ( #466, #891, #783, #844, #393 ) ) ;
#496 = LINE ( 'NONE', #1129, #1330 ) ;
#497 = DIRECTION ( 'NONE',  ( -1.000000000000000000, -4.336808689942017736E-16, -0.000000000000000000 ) ) ;
#498 = ORIENTED_EDGE ( 'NONE', *, *, #1045, .T. ) ;
#499 = CARTESIAN_POINT ( 'NONE',  ( -27.50000000000000000, 11.50000000000000000, 0.000000000000000000 ) ) ;
#500 = VECTOR ( 'NONE', #1209, 1000.000000000000000 ) ;
#501 = DIRECTION ( 'NONE',  ( 0.000000000000000000, 0.000000000000000000, 1.000000000000000000 ) ) ;
#502 = EDGE_CURVE ( 'NONE', #27, #1043, #1295, .T. ) ;
#503 = EDGE_LOOP ( 'NONE', ( #264, #1219, #356, #1203 ) ) ;
#504 = LINE ( 'NONE', #1151, #988 ) ;
#505 = ORIENTED_EDGE ( 'NONE', *, *, #1395, .F. ) ;
#506 = PLANE ( 'NONE',  #237 ) ;
#507 = CARTESIAN_POINT ( 'NONE',  ( 25.99999999999999645, 13.00000000000002842, 0.000000000000000000 ) ) ;
#508 = ORIENTED_EDGE ( 'NONE', *, *, #502, .F. ) ;
#509 = CIRCLE ( 'NONE', #807, 1.499999999999997780 ) ;
#510 = AXIS2_PLACEMENT_3D ( 'NONE', #100, #745, #511 ) ;
#511 = DIRECTION ( 'NONE',  ( 1.000000000000000000, 0.000000000000000000, 0.000000000000000000 ) ) ;
#512 = VECTOR ( 'NONE', #704, 1000.000000000000000 ) ;
#513 = EDGE_LOOP ( 'NONE', ( #1199, #1265, #742, #117 ) ) ;
#514 = LINE ( 'NONE', #162, #1231 ) ;
#515 = CARTESIAN_POINT ( 'NONE',  ( 18.500000000000004, 15, 8 ) ) ;
#516 = ORIENTED_EDGE ( 'NONE', *, *, #972, .T. ) ;
#517 = DIRECTION ( 'NONE',  ( 0.000000000000000000, 0.000000000000000000, 1.000000000000000000 ) ) ;
#518 = ADVANCED_FACE ( 'NONE', ( #1119 ), #586, .F. ) ;
#519 = ORIENTED_EDGE ( 'NONE', *, *, #1201, .F. ) ;
#520 = DIRECTION ( 'NONE',  ( 1.000000000000000000, 0.000000000000000000, 0.000000000000000000 ) ) ;
#521 = VECTOR ( 'NONE', #381, 1000.000000000000000 ) ;
#522 = ORIENTED_EDGE ( 'NONE', *, *, #203, .T. ) ;
#523 = CARTESIAN_POINT ( 'NONE',  ( -25.99999999999998934, -16.00000000000000000, 3.000000000000000000 ) ) ;
#524 = ORIENTED_EDGE ( 'NONE', *, *, #219, .F. ) ;
#525 = FACE_OUTER_BOUND ( 'NONE', #939, .T. ) ;
#526 = ADVANCED_FACE ( 'NONE', ( #1229 ), #786, .F. ) ;
#527 = ORIENTED_EDGE ( 'NONE', *, *, #113, .F. ) ;
#528 = CARTESIAN_POINT ( 'NONE',  ( 22.00000000000000355, -12.99999999999999822, 0.000000000000000000 ) ) ;
#529 = FACE_OUTER_BOUND ( 'NONE', #513, .T. ) ;
#530 = VERTEX_POINT ( 'NONE', #902 ) ;
#531 = FACE_OUTER_BOUND ( 'NONE', #553, .T. ) ;
#532 = CIRCLE ( 'NONE', #145, 1.500000000000025535 ) ;
#533 = VERTEX_POINT ( 'NONE', #24 ) ;
#534 = CARTESIAN_POINT ( 'NONE',  ( -22.00000000000000355, 9.999999999999998224, 3.000000000000000000 ) ) ;
#535 = EDGE_CURVE ( 'NONE', #295, #691, #662, .T. ) ;
#536 = DIRECTION ( 'NONE',  ( 1.000000000000000000, 0.000000000000000000, 0.000000000000000000 ) ) ;
#537 = EDGE_CURVE ( 'NONE', #883, #341, #30, .T. ) ;
#538 = DIRECTION ( 'NONE',  ( 1.000000000000000000, 0.000000000000000000, 0.000000000000000000 ) ) ;
#539 = DIRECTION ( 'NONE',  ( -0.000000000000000000, 1.000000000000000000, -0.000000000000000000 ) ) ;
#540 = ORIENTED_EDGE ( 'NONE', *, *, #1183, .T. ) ;
#541 = CARTESIAN_POINT ( 'NONE',  ( -19.999999999999989, 18, 20 ) ) ;
#542 = CARTESIAN_POINT ( 'NONE',  ( 0.000000000000000000, 0.000000000000000000, 3.000000000000000000 ) ) ;
#543 = ADVANCED_FACE ( 'NONE', ( #118 ), #1319, .F. ) ;
#544 = VERTEX_POINT ( 'NONE', #460 ) ;
#545 = AXIS2_PLACEMENT_3D ( 'NONE', #5, #1404, #424 ) ;
#546 = PLANE ( 'NONE',  #8 ) ;
#547 = ORIENTED_EDGE ( 'NONE', *, *, #857, .F. ) ;
#548 = DIRECTION ( 'NONE',  ( 0.000000000000000000, 0.000000000000000000, 1.000000000000000000 ) ) ;
#549 = ORIENTED_EDGE ( 'NONE', *, *, #1193, .F. ) ;
#550 = FACE_BOUND ( 'NONE', #348, .T. ) ;
#551 = ORIENTED_EDGE ( 'NONE', *, *, #1225, .F. ) ;
#552 = FACE_BOUND ( 'NONE', #358, .T. ) ;
#553 = EDGE_LOOP ( 'NONE', ( #1010, #963, #547, #396 ) ) ;
#554 = CARTESIAN_POINT ( 'NONE',  ( 35.00000000000000000, 15.00000000000000000, 28.00000000000000000 ) ) ;
#555 = VECTOR ( 'NONE', #784, 1000.000000000000000 ) ;
#556 =( GEOMETRIC_REPRESENTATION_CONTEXT ( 3 ) GLOBAL_UNCERTAINTY_ASSIGNED_CONTEXT ( ( #895 ) ) GLOBAL_UNIT_ASSIGNED_CONTEXT ( ( #610, #825, #482 ) ) REPRESENTATION_CONTEXT ( 'NONE', 'WORKASPACE' ) );
#557 = VERTEX_POINT ( 'NONE', #467 ) ;
#558 = PLANE ( 'NONE',  #433 ) ;
#559 = FACE_OUTER_BOUND ( 'NONE', #401, .T. ) ;
#560 = CIRCLE ( 'NONE', #51, 1.499999999999997780 ) ;
#561 = LINE ( 'NONE', #1114, #602 ) ;
#562 = VERTEX_POINT ( 'NONE', #1335 ) ;
#563 = EDGE_CURVE ( 'NONE', #1030, #27, #1216, .T. ) ;
#564 = DIRECTION ( 'NONE',  ( 0.000000000000000000, 1.000000000000000000, 0.000000000000000000 ) ) ;
#565 = ORIENTED_EDGE ( 'NONE', *, *, #664, .F. ) ;
#566 = CARTESIAN_POINT ( 'NONE',  ( -19.999999999999989, 15, 20 ) ) ;
#567 = CARTESIAN_POINT ( 'NONE',  ( 25.99999999999999289, 9.999999999999998224, 0.000000000000000000 ) ) ;
#568 = DIRECTION ( 'NONE',  ( -4.336808689942017120E-17, -1.000000000000000000, 0.000000000000000000 ) ) ;
#569 = VERTEX_POINT ( 'NONE', #779 ) ;
#570 = DIRECTION ( 'NONE',  ( 0.000000000000000000, 0.000000000000000000, 1.000000000000000000 ) ) ;
#571 = ADVANCED_FACE ( 'NONE', ( #894 ), #558, .F. ) ;
#572 = VERTEX_POINT ( 'NONE', #43 ) ;
#573 = DIRECTION ( 'NONE',  ( -0.8944271909999159664, 0.000000000000000000, -0.4472135954999577057 ) ) ;
#574 = FACE_OUTER_BOUND ( 'NONE', #485, .T. ) ;
#575 =( NAMED_UNIT ( * ) SI_UNIT ( $, .STERADIAN. ) SOLID_ANGLE_UNIT ( ) );
#576 = DIRECTION ( 'NONE',  ( 1.000000000000000000, 0.000000000000000000, 0.000000000000000000 ) ) ;
#577 = ORIENTED_EDGE ( 'NONE', *, *, #475, .T. ) ;
#578 = FACE_OUTER_BOUND ( 'NONE', #1002, .T. ) ;
#579 = AXIS2_PLACEMENT_3D ( 'NONE', #1198, #1007, #440 ) ;
#580 = CARTESIAN_POINT ( 'NONE',  ( -26.00000000000000000, 13.00000000000000178, 3.000000000000000000 ) ) ;
#581 = ADVANCED_FACE ( 'NONE', ( #578 ), #1327, .T. ) ;
#582 = VECTOR ( 'NONE', #152, 1000.000000000000000 ) ;
#583 = CARTESIAN_POINT ( 'NONE',  ( 0.000000000000000000, 0.000000000000000000, 0.000000000000000000 ) ) ;
#584 = DIRECTION ( 'NONE',  ( -0.000000000000000000, -0.000000000000000000, -1.000000000000000000 ) ) ;
#585 = ORIENTED_EDGE ( 'NONE', *, *, #1285, .F. ) ;
#586 = PLANE ( 'NONE',  #681 ) ;
#587 = CARTESIAN_POINT ( 'NONE',  ( -40.00000000000000000, 18.00000000000000000, 3.000000000000000000 ) ) ;
#588 = ADVANCED_FACE ( 'NONE', ( #1127 ), #351, .F. ) ;
#589 = CLOSED_SHELL ( 'NONE', ( #694, #1210, #936, #1274, #938, #173, #1337, #605, #142, #441, #1403, #1125, #283, #518, #104, #1012, #790, #96, #469, #308, #1338, #701, #1116, #876, #640, #1042, #526, #716, #1218, #1034, #734, #1291, #581, #543, #483, #1328, #434, #571, #588, #371, #249, #999 ) ) ;
#590 = VECTOR ( 'NONE', #678, 1000.000000000000000 ) ;
#591 = CARTESIAN_POINT ( 'NONE',  ( -25.99999999999998934, -16.00000000000000000, 3.000000000000000000 ) ) ;
#592 = ORIENTED_EDGE ( 'NONE', *, *, #865, .T. ) ;
#593 = FACE_OUTER_BOUND ( 'NONE', #858, .T. ) ;
#594 = PLANE ( 'NONE',  #224 ) ;
#595 = ORIENTED_EDGE ( 'NONE', *, *, #1045, .F. ) ;
#596 = DIRECTION ( 'NONE',  ( 1.000000000000000000, 0.000000000000000000, 0.000000000000000000 ) ) ;
#597 = EDGE_CURVE ( 'NONE', #946, #295, #1222, .T. ) ;
#598 = DIRECTION ( 'NONE',  ( 1.000000000000000000, 1.826024711554533174E-16, -0.000000000000000000 ) ) ;
#599 = EDGE_LOOP ( 'NONE', ( #1085, #508, #609, #941 ) ) ;
#600 = DIRECTION ( 'NONE',  ( 0.000000000000000000, 1.000000000000000000, 0.000000000000000000 ) ) ;
#601 = DIRECTION ( 'NONE',  ( 5.782411586589356653E-16, 0.000000000000000000, 1.000000000000000000 ) ) ;
#602 = VECTOR ( 'NONE', #665, 1000.000000000000000 ) ;
#603 = ORIENTED_EDGE ( 'NONE', *, *, #1395, .T. ) ;
#604 = LINE ( 'NONE', #811, #736 ) ;
#605 = ADVANCED_FACE ( 'NONE', ( #996, #15, #1381 ), #835, .F. ) ;
#606 = EDGE_LOOP ( 'NONE', ( #1414, #661, #754, #252 ) ) ;
#607 = CARTESIAN_POINT ( 'NONE',  ( 18.500000000000004, 15, 8 ) ) ;
#608 = CARTESIAN_POINT ( 'NONE',  ( -18.5, 15, 20 ) ) ;
#609 = ORIENTED_EDGE ( 'NONE', *, *, #1096, .T. ) ;
#610 =( LENGTH_UNIT ( ) NAMED_UNIT ( * ) SI_UNIT ( .MILLI., .METRE. ) );
#611 = CARTESIAN_POINT ( 'NONE',  ( 25.99999999999999289, 11.50000000000002665, 3.000000000000000000 ) ) ;
#612 = VECTOR ( 'NONE', #245, 1000.000000000000000 ) ;
#613 = ORIENTED_EDGE ( 'NONE', *, *, #389, .T. ) ;
#614 = CARTESIAN_POINT ( 'NONE',  ( 22.00000000000000355, -12.99999999999999822, 3.000000000000000000 ) ) ;
#615 = CIRCLE ( 'NONE', #1094, 1.499999999999997780 ) ;
#616 = EDGE_CURVE ( 'NONE', #309, #407, #402, .T. ) ;
#617 = LINE ( 'NONE', #929, #911 ) ;
#618 = VERTEX_POINT ( 'NONE', #1031 ) ;
#619 = CARTESIAN_POINT ( 'NONE',  ( -27.49999999999999289, -14.49999999999999822, 3.000000000000000000 ) ) ;
#620 = ORIENTED_EDGE ( 'NONE', *, *, #209, .T. ) ;
#621 = DIRECTION ( 'NONE',  ( -0.000000000000000000, 1.000000000000000000, -0.000000000000000000 ) ) ;
#622 = EDGE_CURVE ( 'NONE', #883, #411, #514, .T. ) ;
#623 = LINE ( 'NONE', #608, #796 ) ;
#624 = EDGE_CURVE ( 'NONE', #1373, #451, #56, .T. ) ;
#625 = ORIENTED_EDGE ( 'NONE', *, *, #345, .F. ) ;
#626 = VECTOR ( 'NONE', #884, 1000.000000000000114 ) ;
#627 = VECTOR ( 'NONE', #114, 1000.000000000000000 ) ;
#628 = CARTESIAN_POINT ( 'NONE',  ( -35.00000000000000000, 15.00000000000000000, 28.00000000000000000 ) ) ;
#629 = VECTOR ( 'NONE', #761, 1000.000000000000000 ) ;
#630 = EDGE_LOOP ( 'NONE', ( #718, #1208, #1332, #180 ) ) ;
#631 = CARTESIAN_POINT ( 'NONE',  ( -25.99999999999999289, -14.49999999999999822, 3.000000000000000000 ) ) ;
#632 = FACE_OUTER_BOUND ( 'NONE', #599, .T. ) ;
#633 = VERTEX_POINT ( 'NONE', #1256 ) ;
#634 = EDGE_CURVE ( 'NONE', #544, #642, #1369, .T. ) ;
#635 = DIRECTION ( 'NONE',  ( -0.4472135954999575391, 0.000000000000000000, -0.8944271909999160775 ) ) ;
#636 = ORIENTED_EDGE ( 'NONE', *, *, #634, .T. ) ;
#637 = CARTESIAN_POINT ( 'NONE',  ( -19.999999999999989, 15, 21.5 ) ) ;
#638 = DIRECTION ( 'NONE',  ( 1.000000000000000000, 0.000000000000000000, 0.000000000000000000 ) ) ;
#639 = CARTESIAN_POINT ( 'NONE',  ( 22.00000000000000355, -14.49999999999999467, 3.000000000000000000 ) ) ;
#640 = ADVANCED_FACE ( 'NONE', ( #927 ), #155, .F. ) ;
#641 = CARTESIAN_POINT ( 'NONE',  ( -27.50000000000000000, 11.50000000000000000, 3.000000000000000000 ) ) ;
#642 = VERTEX_POINT ( 'NONE', #285 ) ;
#643 = FACE_OUTER_BOUND ( 'NONE', #1396, .T. ) ;
#644 = DIRECTION ( 'NONE',  ( 1.000000000000000000, 0.000000000000000000, 0.000000000000000000 ) ) ;
#645 = ORIENTED_EDGE ( 'NONE', *, *, #1385, .F. ) ;
#646 = CYLINDRICAL_SURFACE ( 'NONE', #1131, 1.500000000000029088 ) ;
#647 = CIRCLE ( 'NONE', #714, 1.500000000000025535 ) ;
#648 = EDGE_LOOP ( 'NONE', ( #723, #806, #107, #827 ) ) ;
#649 = LINE ( 'NONE', #1402, #1308 ) ;
#650 = EDGE_CURVE ( 'NONE', #464, #544, #373, .T. ) ;
#651 = DIRECTION ( 'NONE',  ( -0.000000000000000000, 1.000000000000000000, -0.000000000000000000 ) ) ;
#652 = ORIENTED_EDGE ( 'NONE', *, *, #622, .T. ) ;
#653 = LINE ( 'NONE', #890, #1241 ) ;
#654 = EDGE_LOOP ( 'NONE', ( #1281, #277, #311, #23 ) ) ;
#655 = DIRECTION ( 'NONE',  ( 0.000000000000000000, 0.000000000000000000, 1.000000000000000000 ) ) ;
#656 = DIRECTION ( 'NONE',  ( -0.000000000000000000, 1.000000000000000000, -0.000000000000000000 ) ) ;
#657 = DIRECTION ( 'NONE',  ( -0.000000000000000000, 1.000000000000000000, -0.000000000000000000 ) ) ;
#658 = CARTESIAN_POINT ( 'NONE',  ( 22.00000000000000355, -12.99999999999999822, 3.000000000000000000 ) ) ;
#659 = ORIENTED_EDGE ( 'NONE', *, *, #683, .F. ) ;
#660 = CARTESIAN_POINT ( 'NONE',  ( 40.00000000000000000, 18.00000000000000000, 2.999999999999999556 ) ) ;
#661 = ORIENTED_EDGE ( 'NONE', *, *, #1150, .F. ) ;
#662 = LINE ( 'NONE', #887, #1005 ) ;
#663 = ORIENTED_EDGE ( 'NONE', *, *, #111, .T. ) ;
#664 = EDGE_CURVE ( 'NONE', #220, #464, #156, .T. ) ;
#665 = DIRECTION ( 'NONE',  ( 1.826024711554533420E-16, -1.000000000000000000, 0.000000000000000000 ) ) ;
#666 = EDGE_LOOP ( 'NONE', ( #793, #715, #926, #99 ) ) ;
#667 = CARTESIAN_POINT ( 'NONE',  ( 21.99999999999999645, 11.49999999999999822, 3.000000000000000000 ) ) ;
#668 = VECTOR ( 'NONE', #741, 1000.000000000000000 ) ;
#669 = CIRCLE ( 'NONE', #468, 1.500000000000001332 ) ;
#670 = VERTEX_POINT ( 'NONE', #1038 ) ;
#671 = DIRECTION ( 'NONE',  ( -1.000000000000000000, 0.000000000000000000, 2.891205793294678326E-16 ) ) ;
#672 = CARTESIAN_POINT ( 'NONE',  ( -40.00000000000000000, 18.00000000000000000, 3.000000000000000444 ) ) ;
#673 = DIRECTION ( 'NONE',  ( -0.000000000000000000, -0.000000000000000000, -1.000000000000000000 ) ) ;
#674 = EDGE_CURVE ( 'NONE', #36, #746, #493, .T. ) ;
#675 = VERTEX_POINT ( 'NONE', #499 ) ;
#676 = DIRECTION ( 'NONE',  ( 0.000000000000000000, -1.000000000000000000, 0.000000000000000000 ) ) ;
#677 = EDGE_LOOP ( 'NONE', ( #67, #322, #223, #241 ) ) ;
#678 = DIRECTION ( 'NONE',  ( -0.000000000000000000, -0.000000000000000000, -1.000000000000000000 ) ) ;
#679 = DIRECTION ( 'NONE',  ( -1.000000000000000000, -0.000000000000000000, -0.000000000000000000 ) ) ;
#680 = AXIS2_PLACEMENT_3D ( 'NONE', #200, #744, #417 ) ;
#681 = AXIS2_PLACEMENT_3D ( 'NONE', #367, #136, #452 ) ;
#682 = FACE_BOUND ( 'NONE', #1196, .T. ) ;
#683 = EDGE_CURVE ( 'NONE', #967, #19, #935, .T. ) ;
#684 = EDGE_LOOP ( 'NONE', ( #472, #524, #1302, #1326 ) ) ;
#685 = PLANE ( 'NONE',  #1177 ) ;
#686 = EDGE_CURVE ( 'NONE', #930, #633, #1243, .T. ) ;
#687 = ORIENTED_EDGE ( 'NONE', *, *, #166, .F. ) ;
#688 = CARTESIAN_POINT ( 'NONE',  ( 21.5, 15, 8 ) ) ;
#689 = DIRECTION ( 'NONE',  ( -0.000000000000000000, 1.000000000000000000, -0.000000000000000000 ) ) ;
#690 = CARTESIAN_POINT ( 'NONE',  ( 20.50000000000000355, -14.49999999999999467, 0.000000000000000000 ) ) ;
#691 = VERTEX_POINT ( 'NONE', #291 ) ;
#692 = AXIS2_PLACEMENT_3D ( 'NONE', #198, #868, #1074 ) ;
#693 = CARTESIAN_POINT ( 'NONE',  ( 40.00000000000000000, 15.00000000000000000, 2.999999999999999556 ) ) ;
#694 = ADVANCED_FACE ( 'NONE', ( #1052 ), #386, .F. ) ;
#695 = CIRCLE ( 'NONE', #419, 1.500000000000001332 ) ;
#696 = LINE ( 'NONE', #137, #177 ) ;
#697 = AXIS2_PLACEMENT_3D ( 'NONE', #160, #584, #1022 ) ;
#698 = DIRECTION ( 'NONE',  ( 1.000000000000000000, 0.000000000000000000, 0.000000000000000000 ) ) ;
#699 = ORIENTED_EDGE ( 'NONE', *, *, #203, .F. ) ;
#700 = CARTESIAN_POINT ( 'NONE',  ( 20, 15, 21.5 ) ) ;
#701 = ADVANCED_FACE ( 'NONE', ( #593 ), #394, .T. ) ;
#702 = LINE ( 'NONE', #1322, #612 ) ;
#703 = VECTOR ( 'NONE', #175, 1000.000000000000000 ) ;
#704 = DIRECTION ( 'NONE',  ( -1.000000000000000000, -0.000000000000000000, -0.000000000000000000 ) ) ;
#705 = ORIENTED_EDGE ( 'NONE', *, *, #502, .T. ) ;
#706 = DIRECTION ( 'NONE',  ( 0.000000000000000000, 0.000000000000000000, 1.000000000000000000 ) ) ;
#707 = FACE_OUTER_BOUND ( 'NONE', #606, .T. ) ;
#708 = VERTEX_POINT ( 'NONE', #700 ) ;
#709 = EDGE_CURVE ( 'NONE', #530, #670, #1140, .T. ) ;
#710 = FACE_OUTER_BOUND ( 'NONE', #492, .T. ) ;
#711 = ORIENTED_EDGE ( 'NONE', *, *, #1244, .F. ) ;
#712 = DIRECTION ( 'NONE',  ( 0.000000000000000000, 1.000000000000000000, 0.000000000000000000 ) ) ;
#713 = CARTESIAN_POINT ( 'NONE',  ( 22.00000000000000355, -15.99999999999999289, 3.000000000000000000 ) ) ;
#714 = AXIS2_PLACEMENT_3D ( 'NONE', #912, #262, #698 ) ;
#715 = ORIENTED_EDGE ( 'NONE', *, *, #389, .F. ) ;
#716 = ADVANCED_FACE ( 'NONE', ( #1166 ), #506, .T. ) ;
#717 = DIRECTION ( 'NONE',  ( 0.000000000000000000, 0.000000000000000000, 1.000000000000000000 ) ) ;
#718 = ORIENTED_EDGE ( 'NONE', *, *, #461, .F. ) ;
#719 = DIRECTION ( 'NONE',  ( -1.000000000000000000, -0.000000000000000000, -0.000000000000000000 ) ) ;
#720 = CARTESIAN_POINT ( 'NONE',  ( -27.49999999999999289, -14.49999999999999822, 0.000000000000000000 ) ) ;
#721 = ORIENTED_EDGE ( 'NONE', *, *, #1175, .F. ) ;
#722 = DIRECTION ( 'NONE',  ( 1.000000000000000000, 0.000000000000000000, 0.000000000000000000 ) ) ;
#723 = ORIENTED_EDGE ( 'NONE', *, *, #1158, .T. ) ;
#724 = CARTESIAN_POINT ( 'NONE',  ( -19.999999999999989, 18, 20 ) ) ;
#725 = VECTOR ( 'NONE', #1374, 1000.000000000000000 ) ;
#726 = EDGE_CURVE ( 'NONE', #161, #1313, #73, .T. ) ;
#727 = DIRECTION ( 'NONE',  ( 0.000000000000000000, 1.000000000000000000, 0.000000000000000000 ) ) ;
#728 = ORIENTED_EDGE ( 'NONE', *, *, #947, .F. ) ;
#729 = DIRECTION ( 'NONE',  ( -0.000000000000000000, -0.000000000000000000, -1.000000000000000000 ) ) ;
#730 = VERTEX_POINT ( 'NONE', #1180 ) ;
#731 = CARTESIAN_POINT ( 'NONE',  ( -26.00000000000000000, 11.50000000000000000, 0.000000000000000000 ) ) ;
#732 = EDGE_LOOP ( 'NONE', ( #663, #595, #973, #603 ) ) ;
#733 = DIRECTION ( 'NONE',  ( 0.000000000000000000, 1.000000000000000000, 0.000000000000000000 ) ) ;
#734 = ADVANCED_FACE ( 'NONE', ( #205 ), #82, .F. ) ;
#735 = ORIENTED_EDGE ( 'NONE', *, *, #1028, .T. ) ;
#736 = VECTOR ( 'NONE', #826, 1000.000000000000000 ) ;
#737 = PRODUCT_DEFINITION_FORMATION_WITH_SPECIFIED_SOURCE ( 'ANY', '', #845, .NOT_KNOWN. ) ;
#738 = FACE_OUTER_BOUND ( 'NONE', #233, .T. ) ;
#739 = AXIS2_PLACEMENT_3D ( 'NONE', #842, #102, #218 ) ;
#740 = VERTEX_POINT ( 'NONE', #1171 ) ;
#741 = DIRECTION ( 'NONE',  ( -0.000000000000000000, 1.000000000000000000, -0.000000000000000000 ) ) ;
#742 = ORIENTED_EDGE ( 'NONE', *, *, #597, .T. ) ;
#743 = CARTESIAN_POINT ( 'NONE',  ( -19.999999999999989, 15, 20 ) ) ;
#744 = DIRECTION ( 'NONE',  ( 0.000000000000000000, 1.000000000000000000, 0.000000000000000000 ) ) ;
#745 = DIRECTION ( 'NONE',  ( 0.000000000000000000, 0.000000000000000000, 1.000000000000000000 ) ) ;
#746 = VERTEX_POINT ( 'NONE', #1389 ) ;
#747 = LINE ( 'NONE', #1092, #260 ) ;
#748 = VECTOR ( 'NONE', #601, 1000.000000000000000 ) ;
#749 = VECTOR ( 'NONE', #638, 1000.000000000000000 ) ;
#750 = CYLINDRICAL_SURFACE ( 'NONE', #1272, 1.499999999999997780 ) ;
#751 = ORIENTED_EDGE ( 'NONE', *, *, #563, .T. ) ;
#752 = PRESENTATION_STYLE_ASSIGNMENT (( #318 ) ) ;
#753 = EDGE_CURVE ( 'NONE', #562, #1057, #649, .T. ) ;
#754 = ORIENTED_EDGE ( 'NONE', *, *, #1104, .T. ) ;
#755 = CARTESIAN_POINT ( 'NONE',  ( -21.99999999999998934, -16.00000000000000000, 3.000000000000000000 ) ) ;
#756 = DIRECTION ( 'NONE',  ( -0.000000000000000000, 1.000000000000000000, -0.000000000000000000 ) ) ;
#757 = ORIENTED_EDGE ( 'NONE', *, *, #1385, .T. ) ;
#758 = LINE ( 'NONE', #619, #239 ) ;
#759 = AXIS2_PLACEMENT_3D ( 'NONE', #1300, #1185, #310 ) ;
#760 = ORIENTED_EDGE ( 'NONE', *, *, #256, .T. ) ;
#761 = DIRECTION ( 'NONE',  ( 1.000000000000000000, 0.000000000000000000, 0.000000000000000000 ) ) ;
#762 = CIRCLE ( 'NONE', #1135, 1.500000000000001332 ) ;
#763 = EDGE_LOOP ( 'NONE', ( #1055, #1047, #226, #592 ) ) ;
#764 = CARTESIAN_POINT ( 'NONE',  ( -18.5, 15, 8 ) ) ;
#765 = ORIENTED_EDGE ( 'NONE', *, *, #981, .F. ) ;
#766 = FACE_BOUND ( 'NONE', #1051, .T. ) ;
#767 = EDGE_LOOP ( 'NONE', ( #879, #94, #751, #705, #385 ) ) ;
#768 = CARTESIAN_POINT ( 'NONE',  ( 18.500000000000004, 15, 8 ) ) ;
#769 = ORIENTED_EDGE ( 'NONE', *, *, #823, .F. ) ;
#770 = DIRECTION ( 'NONE',  ( -0.000000000000000000, -0.000000000000000000, -1.000000000000000000 ) ) ;
#771 = CIRCLE ( 'NONE', #910, 1.499999999999997780 ) ;
#772 = EDGE_CURVE ( 'NONE', #19, #248, #414, .T. ) ;
#773 = AXIS2_PLACEMENT_3D ( 'NONE', #61, #169, #813 ) ;
#774 = ORIENTED_EDGE ( 'NONE', *, *, #947, .T. ) ;
#775 =( LENGTH_UNIT ( ) NAMED_UNIT ( * ) SI_UNIT ( .MILLI., .METRE. ) );
#776 = EDGE_LOOP ( 'NONE', ( #14, #934, #969, #791 ) ) ;
#777 = PLANE ( 'NONE',  #377 ) ;
#778 = ORIENTED_EDGE ( 'NONE', *, *, #1054, .T. ) ;
#779 = CARTESIAN_POINT ( 'NONE',  ( -21.499999999999986, 18, 20 ) ) ;
#780 = EDGE_CURVE ( 'NONE', #967, #1115, #90, .T. ) ;
#781 = DIRECTION ( 'NONE',  ( -1.826024711554533913E-16, 1.000000000000000000, -0.000000000000000000 ) ) ;
#782 = CARTESIAN_POINT ( 'NONE',  ( 25.99999999999999289, 11.50000000000002665, 0.000000000000000000 ) ) ;
#783 = ORIENTED_EDGE ( 'NONE', *, *, #1235, .F. ) ;
#784 = DIRECTION ( 'NONE',  ( -1.826024711554533913E-16, 1.000000000000000000, -0.000000000000000000 ) ) ;
#785 = ORIENTED_EDGE ( 'NONE', *, *, #1259, .T. ) ;
#786 = CYLINDRICAL_SURFACE ( 'NONE', #339, 1.500000000000025535 ) ;
#787 = DIRECTION ( 'NONE',  ( 1.000000000000000000, 0.000000000000000000, 0.000000000000000000 ) ) ;
#788 = EDGE_CURVE ( 'NONE', #1043, #220, #1408, .T. ) ;
#789 = FACE_BOUND ( 'NONE', #290, .T. ) ;
#790 = ADVANCED_FACE ( 'NONE', ( #643 ), #1080, .F. ) ;
#791 = ORIENTED_EDGE ( 'NONE', *, *, #1368, .F. ) ;
#792 = DIRECTION ( 'NONE',  ( -1.000000000000000000, 0.000000000000000000, 0.000000000000000000 ) ) ;
#793 = ORIENTED_EDGE ( 'NONE', *, *, #780, .T. ) ;
#794 = CARTESIAN_POINT ( 'NONE',  ( -21.499999999999996, 15, 8 ) ) ;
#795 = DIRECTION ( 'NONE',  ( -1.000000000000000000, 0.000000000000000000, 0.000000000000000000 ) ) ;
#796 = VECTOR ( 'NONE', #836, 1000.000000000000000 ) ;
#797 = VECTOR ( 'NONE', #75, 1000.000000000000000 ) ;
#798 = DIRECTION ( 'NONE',  ( -0.000000000000000000, -0.000000000000000000, -1.000000000000000000 ) ) ;
#799 = EDGE_CURVE ( 'NONE', #1065, #691, #429, .T. ) ;
#800 = DIRECTION ( 'NONE',  ( -0.000000000000000000, 1.000000000000000000, -0.000000000000000000 ) ) ;
#801 = VERTEX_POINT ( 'NONE', #528 ) ;
#802 = CYLINDRICAL_SURFACE ( 'NONE', #316, 1.499999999999997780 ) ;
#803 = CARTESIAN_POINT ( 'NONE',  ( -25.99999999999999289, -14.49999999999999822, 3.000000000000000000 ) ) ;
#804 = DIRECTION ( 'NONE',  ( -0.000000000000000000, 0.000000000000000000, 1.000000000000000000 ) ) ;
#805 = CARTESIAN_POINT ( 'NONE',  ( 22.00000000000000355, -14.49999999999999467, 0.000000000000000000 ) ) ;
#806 = ORIENTED_EDGE ( 'NONE', *, *, #686, .F. ) ;
#807 = AXIS2_PLACEMENT_3D ( 'NONE', #805, #933, #1372 ) ;
#808 = DIRECTION ( 'NONE',  ( 0.000000000000000000, 0.000000000000000000, 1.000000000000000000 ) ) ;
#809 = CARTESIAN_POINT ( 'NONE',  ( 40.00000000000000000, 15.00000000000000000, 2.999999999999999556 ) ) ;
#810 = AXIS2_PLACEMENT_3D ( 'NONE', #265, #828, #1263 ) ;
#811 = CARTESIAN_POINT ( 'NONE',  ( -21.499999999999986, 15, 20 ) ) ;
#812 = ORIENTED_EDGE ( 'NONE', *, *, #62, .T. ) ;
#813 = DIRECTION ( 'NONE',  ( -1.000000000000000000, 0.000000000000000000, 0.000000000000000000 ) ) ;
#814 = LINE ( 'NONE', #1257, #521 ) ;
#815 = EDGE_CURVE ( 'NONE', #197, #413, #762, .T. ) ;
#816 = ORIENTED_EDGE ( 'NONE', *, *, #1348, .T. ) ;
#817 = AXIS2_PLACEMENT_3D ( 'NONE', #1336, #997, #1026 ) ;
#818 = VECTOR ( 'NONE', #656, 1000.000000000000000 ) ;
#819 = LINE ( 'NONE', #925, #948 ) ;
#820 = VERTEX_POINT ( 'NONE', #861 ) ;
#821 = DIRECTION ( 'NONE',  ( -0.000000000000000000, -0.000000000000000000, -1.000000000000000000 ) ) ;
#822 = DIRECTION ( 'NONE',  ( 0.000000000000000000, 0.000000000000000000, 1.000000000000000000 ) ) ;
#823 = EDGE_CURVE ( 'NONE', #1253, #270, #95, .T. ) ;
#824 = EDGE_LOOP ( 'NONE', ( #1068, #831, #1146, #585 ) ) ;
#825 =( NAMED_UNIT ( * ) PLANE_ANGLE_UNIT ( ) SI_UNIT ( $, .RADIAN. ) );
#826 = DIRECTION ( 'NONE',  ( -0.000000000000000000, 1.000000000000000000, -0.000000000000000000 ) ) ;
#827 = ORIENTED_EDGE ( 'NONE', *, *, #79, .T. ) ;
#828 = DIRECTION ( 'NONE',  ( 0.000000000000000000, -1.000000000000000000, 0.000000000000000000 ) ) ;
#829 = CARTESIAN_POINT ( 'NONE',  ( -39.99999999999999289, -20.00000000000000355, 3.000000000000000000 ) ) ;
#830 = AXIS2_PLACEMENT_3D ( 'NONE', #1191, #539, #435 ) ;
#831 = ORIENTED_EDGE ( 'NONE', *, *, #904, .T. ) ;
#832 = DIRECTION ( 'NONE',  ( -0.000000000000000000, -0.000000000000000000, -1.000000000000000000 ) ) ;
#833 = EDGE_CURVE ( 'NONE', #740, #420, #1297, .T. ) ;
#834 = VERTEX_POINT ( 'NONE', #1194 ) ;
#835 = PLANE ( 'NONE',  #365 ) ;
#836 = DIRECTION ( 'NONE',  ( -0.000000000000000000, 1.000000000000000000, -0.000000000000000000 ) ) ;
#837 = ORIENTED_EDGE ( 'NONE', *, *, #70, .F. ) ;
#838 = AXIS2_PLACEMENT_3D ( 'NONE', #128, #151, #1113 ) ;
#839 = CARTESIAN_POINT ( 'NONE',  ( 21.99999999999999645, 9.999999999999971578, 3.000000000000000000 ) ) ;
#840 = EDGE_CURVE ( 'NONE', #319, #270, #747, .T. ) ;
#841 = ORIENTED_EDGE ( 'NONE', *, *, #1376, .F. ) ;
#842 = CARTESIAN_POINT ( 'NONE',  ( -26.00000000000000000, 9.999999999999998224, 3.000000000000000000 ) ) ;
#843 = CARTESIAN_POINT ( 'NONE',  ( 18.500000000000004, 18, 8 ) ) ;
#844 = ORIENTED_EDGE ( 'NONE', *, *, #622, .F. ) ;
#845 = PRODUCT ( '2096102437985599488', '2096102437985599488', '', ( #1347 ) ) ;
#846 = CARTESIAN_POINT ( 'NONE',  ( 25.99999999999999289, 11.50000000000002665, 3.000000000000000000 ) ) ;
#847 = ORIENTED_EDGE ( 'NONE', *, *, #726, .F. ) ;
#848 = CARTESIAN_POINT ( 'NONE',  ( 25.99999999999999645, 13.00000000000003020, 3.000000000000000000 ) ) ;
#849 = CARTESIAN_POINT ( 'NONE',  ( -26.00000000000000000, 13.00000000000000178, 3.000000000000000000 ) ) ;
#850 = ORIENTED_EDGE ( 'NONE', *, *, #624, .T. ) ;
#851 = AXIS2_PLACEMENT_3D ( 'NONE', #443, #133, #792 ) ;
#852 = CIRCLE ( 'NONE', #945, 1.499999999999997780 ) ;
#853 = CARTESIAN_POINT ( 'NONE',  ( -25.99999999999999289, -14.49999999999999822, 0.000000000000000000 ) ) ;
#854 = ORIENTED_EDGE ( 'NONE', *, *, #345, .T. ) ;
#855 = LINE ( 'NONE', #320, #194 ) ;
#856 = FACE_OUTER_BOUND ( 'NONE', #503, .T. ) ;
#857 = EDGE_CURVE ( 'NONE', #445, #428, #855, .T. ) ;
#858 = EDGE_LOOP ( 'NONE', ( #1192, #228, #1211, #60 ) ) ;
#859 = CARTESIAN_POINT ( 'NONE',  ( 18.500000000000014, 15.000000000000004, 20.000000000000004 ) ) ;
#860 = ORIENTED_EDGE ( 'NONE', *, *, #1340, .T. ) ;
#861 = CARTESIAN_POINT ( 'NONE',  ( 22.00000000000000355, -15.99999999999999289, 3.000000000000000000 ) ) ;
#862 = VECTOR ( 'NONE', #1053, 1000.000000000000000 ) ;
#863 = CARTESIAN_POINT ( 'NONE',  ( 35.00000000000000000, 15.00000000000000000, 13.00000000000000178 ) ) ;
#864 = EDGE_LOOP ( 'NONE', ( #1358, #432, #1008, #207, #29 ) ) ;
#865 = EDGE_CURVE ( 'NONE', #618, #1292, #958, .T. ) ;
#866 = CARTESIAN_POINT ( 'NONE',  ( 25.99999999999999289, 9.999999999999998224, 3.000000000000000000 ) ) ;
#867 = ORIENTED_EDGE ( 'NONE', *, *, #1144, .T. ) ;
#868 = DIRECTION ( 'NONE',  ( -0.000000000000000000, -0.000000000000000000, -1.000000000000000000 ) ) ;
#869 = CARTESIAN_POINT ( 'NONE',  ( 21.5, 15, 8 ) ) ;
#870 = VERTEX_POINT ( 'NONE', #108 ) ;
#871 = VECTOR ( 'NONE', #408, 1000.000000000000000 ) ;
#872 = EDGE_CURVE ( 'NONE', #1023, #675, #148, .T. ) ;
#873 = CYLINDRICAL_SURFACE ( 'NONE', #1016, 1.499999999999997780 ) ;
#874 = VECTOR ( 'NONE', #1394, 1000.000000000000000 ) ;
#875 = ORIENTED_EDGE ( 'NONE', *, *, #380, .F. ) ;
#876 = ADVANCED_FACE ( 'NONE', ( #1086 ), #211, .T. ) ;
#877 = DIRECTION ( 'NONE',  ( 0.000000000000000000, -0.000000000000000000, 1.000000000000000000 ) ) ;
#878 = AXIS2_PLACEMENT_3D ( 'NONE', #271, #706, #1415 ) ;
#879 = ORIENTED_EDGE ( 'NONE', *, *, #857, .T. ) ;
#880 = CARTESIAN_POINT ( 'NONE',  ( 21.99999999999999645, 13.00000000000002665, 3.000000000000000000 ) ) ;
#881 = EDGE_LOOP ( 'NONE', ( #382, #769, #812, #1401 ) ) ;
#882 =( NAMED_UNIT ( * ) PLANE_ANGLE_UNIT ( ) SI_UNIT ( $, .RADIAN. ) );
#883 = VERTEX_POINT ( 'NONE', #848 ) ;
#884 = DIRECTION ( 'NONE',  ( -0.4472135954999575391, 0.000000000000000000, -0.8944271909999160775 ) ) ;
#885 = EDGE_CURVE ( 'NONE', #569, #220, #560, .T. ) ;
#886 = EDGE_LOOP ( 'NONE', ( #687, #1350, #78, #378, #1118 ) ) ;
#887 = CARTESIAN_POINT ( 'NONE',  ( 40.00000000000000711, -20.00000000000000355, 3.000000000000000000 ) ) ;
#888 = AXIS2_PLACEMENT_3D ( 'NONE', #1155, #501, #293 ) ;
#889 = FACE_OUTER_BOUND ( 'NONE', #1168, .T. ) ;
#890 = CARTESIAN_POINT ( 'NONE',  ( -21.499999999999996, 18, 8 ) ) ;
#891 = ORIENTED_EDGE ( 'NONE', *, *, #1134, .F. ) ;
#892 = CARTESIAN_POINT ( 'NONE',  ( -25.99999999999999289, -14.49999999999999822, 0.000000000000000000 ) ) ;
#893 = ORIENTED_EDGE ( 'NONE', *, *, #131, .T. ) ;
#894 = FACE_OUTER_BOUND ( 'NONE', #65, .T. ) ;
#895 = UNCERTAINTY_MEASURE_WITH_UNIT (LENGTH_MEASURE( 1.000000000000000082E-05 ), #610, 'distance_accuracy_value', 'NONE');
#896 = CARTESIAN_POINT ( 'NONE',  ( -26.00000000000000000, 13.00000000000000178, 3.000000000000000000 ) ) ;
#897 = DIRECTION ( 'NONE',  ( 1.000000000000000000, -4.336808689942017120E-17, 0.000000000000000000 ) ) ;
#898 = ORIENTED_EDGE ( 'NONE', *, *, #1321, .T. ) ;
#899 = FACE_OUTER_BOUND ( 'NONE', #763, .T. ) ;
#900 = VECTOR ( 'NONE', #1178, 1000.000000000000000 ) ;
#901 = EDGE_LOOP ( 'NONE', ( #913, #1236, #760, #1062, #1299 ) ) ;
#902 = CARTESIAN_POINT ( 'NONE',  ( -22.00000000000001776, -13.00000000000000000, 3.000000000000000000 ) ) ;
#903 = DIRECTION ( 'NONE',  ( -0.000000000000000000, 0.000000000000000000, 1.000000000000000000 ) ) ;
#904 = EDGE_CURVE ( 'NONE', #1099, #533, #1282, .T. ) ;
#905 = DIRECTION ( 'NONE',  ( 1.000000000000000000, 0.000000000000000000, 0.000000000000000000 ) ) ;
#906 = CARTESIAN_POINT ( 'NONE',  ( -40.00000000000000000, 15.00000000000000355, 3.000000000000000000 ) ) ;
#907 = ORIENTED_EDGE ( 'NONE', *, *, #335, .T. ) ;
#908 = DIRECTION ( 'NONE',  ( 0.000000000000000000, 0.000000000000000000, 1.000000000000000000 ) ) ;
#909 = LINE ( 'NONE', #1346, #1293 ) ;
#910 = AXIS2_PLACEMENT_3D ( 'NONE', #639, #1076, #538 ) ;
#911 = VECTOR ( 'NONE', #1264, 1000.000000000000000 ) ;
#912 = CARTESIAN_POINT ( 'NONE',  ( 21.99999999999999645, 11.49999999999999822, 0.000000000000000000 ) ) ;
#913 = ORIENTED_EDGE ( 'NONE', *, *, #491, .T. ) ;
#914 = CARTESIAN_POINT ( 'NONE',  ( 35.00000000000000000, 15.00000000000000000, 0.000000000000000000 ) ) ;
#915 = LINE ( 'NONE', #374, #1391 ) ;
#916 = DIRECTION ( 'NONE',  ( 0.000000000000000000, 0.000000000000000000, 1.000000000000000000 ) ) ;
#917 = EDGE_CURVE ( 'NONE', #315, #950, #215, .T. ) ;
#918 = EDGE_LOOP ( 'NONE', ( #636, #42, #257, #1159 ) ) ;
#919 = AXIS2_PLACEMENT_3D ( 'NONE', #1365, #68, #1359 ) ;
#920 = DIRECTION ( 'NONE',  ( 0.000000000000000000, 1.000000000000000000, 0.000000000000000000 ) ) ;
#921 = AXIS2_PLACEMENT_3D ( 'NONE', #1070, #88, #962 ) ;
#922 = CARTESIAN_POINT ( 'NONE',  ( 40.00000000000000711, -20.00000000000000355, 3.000000000000000000 ) ) ;
#923 = EDGE_LOOP ( 'NONE', ( #850, #505, #1258, #1036 ) ) ;
#924 = SHAPE_DEFINITION_REPRESENTATION ( #297, #186 ) ;
#925 = CARTESIAN_POINT ( 'NONE',  ( 26.00000000000000355, -15.99999999999999289, 3.000000000000000000 ) ) ;
#926 = ORIENTED_EDGE ( 'NONE', *, *, #990, .F. ) ;
#927 = FACE_OUTER_BOUND ( 'NONE', #881, .T. ) ;
#928 = EDGE_CURVE ( 'NONE', #820, #740, #242, .T. ) ;
#929 = CARTESIAN_POINT ( 'NONE',  ( 35.00000000000000000, 15.00000000000000000, 0.000000000000000000 ) ) ;
#930 = VERTEX_POINT ( 'NONE', #768 ) ;
#931 = VECTOR ( 'NONE', #1278, 1000.000000000000000 ) ;
#932 = AXIS2_PLACEMENT_3D ( 'NONE', #1148, #49, #487 ) ;
#933 = DIRECTION ( 'NONE',  ( 0.000000000000000000, 0.000000000000000000, 1.000000000000000000 ) ) ;
#934 = ORIENTED_EDGE ( 'NONE', *, *, #185, .T. ) ;
#935 = LINE ( 'NONE', #1044, #1163 ) ;
#936 = ADVANCED_FACE ( 'NONE', ( #1015 ), #1100, .F. ) ;
#937 = LINE ( 'NONE', #1375, #862 ) ;
#938 = ADVANCED_FACE ( 'NONE', ( #255 ), #1214, .F. ) ;
#939 = EDGE_LOOP ( 'NONE', ( #1156, #372, #280, #210 ) ) ;
#940 = DIRECTION ( 'NONE',  ( -1.826024711554533174E-16, 1.000000000000000000, 0.000000000000000000 ) ) ;
#941 = ORIENTED_EDGE ( 'NONE', *, *, #885, .T. ) ;
#942 = CARTESIAN_POINT ( 'NONE',  ( 21.99999999999999645, 9.999999999999971578, 3.000000000000000000 ) ) ;
#943 = AXIS2_PLACEMENT_3D ( 'NONE', #383, #916, #172 ) ;
#944 = CARTESIAN_POINT ( 'NONE',  ( -25.99999999999999289, -13.00000000000000000, 3.000000000000000000 ) ) ;
#945 = AXIS2_PLACEMENT_3D ( 'NONE', #1267, #392, #288 ) ;
#946 = VERTEX_POINT ( 'NONE', #250 ) ;
#947 = EDGE_CURVE ( 'NONE', #235, #730, #263, .T. ) ;
#948 = VECTOR ( 'NONE', #1029, 1000.000000000000000 ) ;
#949 = LINE ( 'NONE', #839, #121 ) ;
#950 = VERTEX_POINT ( 'NONE', #342 ) ;
#951 = DIRECTION ( 'NONE',  ( 0.000000000000000000, 1.000000000000000000, 0.000000000000000000 ) ) ;
#952 = LINE ( 'NONE', #843, #931 ) ;
#953 = VERTEX_POINT ( 'NONE', #690 ) ;
#954 = VECTOR ( 'NONE', #163, 1000.000000000000000 ) ;
#955 = FACE_OUTER_BOUND ( 'NONE', #732, .T. ) ;
#956 = AXIS2_PLACEMENT_3D ( 'NONE', #724, #951, #808 ) ;
#957 = EDGE_LOOP ( 'NONE', ( #659, #837, #765, #1271, #893 ) ) ;
#958 = LINE ( 'NONE', #755, #488 ) ;
#959 = ORIENTED_EDGE ( 'NONE', *, *, #317, .T. ) ;
#960 = DIRECTION ( 'NONE',  ( 1.000000000000000000, 0.000000000000000000, -2.891205793294678326E-16 ) ) ;
#961 = CARTESIAN_POINT ( 'NONE',  ( -40.00000000000000000, 18.00000000000000000, 28.00000000000000000 ) ) ;
#962 = DIRECTION ( 'NONE',  ( 0.000000000000000000, 0.000000000000000000, 1.000000000000000000 ) ) ;
#963 = ORIENTED_EDGE ( 'NONE', *, *, #362, .F. ) ;
#964 = DIRECTION ( 'NONE',  ( 1.000000000000000000, 0.000000000000000000, 0.000000000000000000 ) ) ;
#965 = EDGE_CURVE ( 'NONE', #1030, #642, #1325, .T. ) ;
#966 = FACE_OUTER_BOUND ( 'NONE', #343, .T. ) ;
#967 = VERTEX_POINT ( 'NONE', #660 ) ;
#968 = CARTESIAN_POINT ( 'NONE',  ( 20.49999999999996803, 11.49999999999999822, 3.000000000000000000 ) ) ;
#969 = ORIENTED_EDGE ( 'NONE', *, *, #1144, .F. ) ;
#970 = DIRECTION ( 'NONE',  ( -0.000000000000000000, -0.000000000000000000, -1.000000000000000000 ) ) ;
#971 = CARTESIAN_POINT ( 'NONE',  ( -26.00000000000000000, 9.999999999999998224, 3.000000000000000000 ) ) ;
#972 = EDGE_CURVE ( 'NONE', #572, #479, #1001, .T. ) ;
#973 = ORIENTED_EDGE ( 'NONE', *, *, #1028, .F. ) ;
#974 = DIRECTION ( 'NONE',  ( -0.000000000000000000, -0.000000000000000000, -1.000000000000000000 ) ) ;
#975 = ORIENTED_EDGE ( 'NONE', *, *, #1071, .F. ) ;
#976 = DIRECTION ( 'NONE',  ( 0.000000000000000000, 0.000000000000000000, -1.000000000000000000 ) ) ;
#977 = AXIS2_PLACEMENT_3D ( 'NONE', #346, #32, #1128 ) ;
#978 = AXIS2_PLACEMENT_3D ( 'NONE', #1269, #600, #1154 ) ;
#979 = DIRECTION ( 'NONE',  ( -0.000000000000000000, 0.000000000000000000, 1.000000000000000000 ) ) ;
#980 = LINE ( 'NONE', #1399, #1344 ) ;
#981 = EDGE_CURVE ( 'NONE', #295, #479, #1206, .T. ) ;
#982 = CARTESIAN_POINT ( 'NONE',  ( 26.00000000000000355, -12.99999999999999822, 3.000000000000000000 ) ) ;
#983 = ORIENTED_EDGE ( 'NONE', *, *, #537, .T. ) ;
#984 = DIRECTION ( 'NONE',  ( -0.000000000000000000, -0.000000000000000000, -1.000000000000000000 ) ) ;
#985 = EDGE_LOOP ( 'NONE', ( #304, #1379, #338, #1261 ) ) ;
#986 = DIRECTION ( 'NONE',  ( -1.000000000000000000, -0.000000000000000000, -0.000000000000000000 ) ) ;
#987 = DIRECTION ( 'NONE',  ( 0.000000000000000000, 0.000000000000000000, 1.000000000000000000 ) ) ;
#988 = VECTOR ( 'NONE', #276, 1000.000000000000000 ) ;
#989 = DIRECTION ( 'NONE',  ( -0.000000000000000000, -0.000000000000000000, -1.000000000000000000 ) ) ;
#990 = EDGE_CURVE ( 'NONE', #479, #336, #1341, .T. ) ;
#991 = VECTOR ( 'NONE', #905, 1000.000000000000000 ) ;
#992 = ORIENTED_EDGE ( 'NONE', *, *, #904, .F. ) ;
#993 = DIRECTION ( 'NONE',  ( 0.000000000000000000, 0.000000000000000000, 1.000000000000000000 ) ) ;
#994 = VECTOR ( 'NONE', #1227, 1000.000000000000000 ) ;
#995 = ORIENTED_EDGE ( 'NONE', *, *, #1137, .T. ) ;
#996 = FACE_BOUND ( 'NONE', #901, .T. ) ;
#997 = DIRECTION ( 'NONE',  ( 0.000000000000000000, 0.000000000000000000, 1.000000000000000000 ) ) ;
#998 = CARTESIAN_POINT ( 'NONE',  ( 22.00000000000000355, -15.99999999999999289, 3.000000000000000000 ) ) ;
#999 = ADVANCED_FACE ( 'NONE', ( #1124 ), #334, .F. ) ;
#1000 = ORIENTED_EDGE ( 'NONE', *, *, #1250, .T. ) ;
#1001 = LINE ( 'NONE', #906, #994 ) ;
#1002 = EDGE_LOOP ( 'NONE', ( #1370, #992, #195, #613 ) ) ;
#1003 = DIRECTION ( 'NONE',  ( -1.000000000000000000, 0.000000000000000000, 0.000000000000000000 ) ) ;
#1004 = VECTOR ( 'NONE', #657, 1000.000000000000000 ) ;
#1005 = VECTOR ( 'NONE', #770, 1000.000000000000000 ) ;
#1006 = LINE ( 'NONE', #474, #1048 ) ;
#1007 = DIRECTION ( 'NONE',  ( 0.000000000000000000, 0.000000000000000000, 1.000000000000000000 ) ) ;
#1008 = ORIENTED_EDGE ( 'NONE', *, *, #39, .F. ) ;
#1009 = DIRECTION ( 'NONE',  ( -0.4472135954999577057, 0.000000000000000000, 0.8944271909999159664 ) ) ;
#1010 = ORIENTED_EDGE ( 'NONE', *, *, #650, .T. ) ;
#1011 = DIRECTION ( 'NONE',  ( 0.000000000000000000, 0.000000000000000000, -1.000000000000000000 ) ) ;
#1012 = ADVANCED_FACE ( 'NONE', ( #899 ), #1333, .T. ) ;
#1013 = CYLINDRICAL_SURFACE ( 'NONE', #384, 1.500000000000001332 ) ;
#1014 = LINE ( 'NONE', #998, #991 ) ;
#1015 = FACE_OUTER_BOUND ( 'NONE', #1108, .T. ) ;
#1016 = AXIS2_PLACEMENT_3D ( 'NONE', #9, #355, #232 ) ;
#1017 = ORIENTED_EDGE ( 'NONE', *, *, #354, .T. ) ;
#1018 = DIRECTION ( 'NONE',  ( 1.000000000000000000, 0.000000000000000000, 0.000000000000000000 ) ) ;
#1019 = AXIS2_PLACEMENT_3D ( 'NONE', #892, #993, #576 ) ;
#1020 = DIRECTION ( 'NONE',  ( 0.000000000000000000, 0.000000000000000000, 1.000000000000000000 ) ) ;
#1021 = DIRECTION ( 'NONE',  ( 1.000000000000000000, 0.000000000000000000, 0.000000000000000000 ) ) ;
#1022 = DIRECTION ( 'NONE',  ( -1.000000000000000000, 0.000000000000000000, 0.000000000000000000 ) ) ;
#1023 = VERTEX_POINT ( 'NONE', #450 ) ;
#1024 = DIRECTION ( 'NONE',  ( -0.000000000000000000, -0.000000000000000000, -1.000000000000000000 ) ) ;
#1025 = AXIS2_PLACEMENT_3D ( 'NONE', #25, #903, #787 ) ;
#1026 = DIRECTION ( 'NONE',  ( 1.000000000000000000, 0.000000000000000000, 0.000000000000000000 ) ) ;
#1027 = CIRCLE ( 'NONE', #932, 1.500000000000001332 ) ;
#1028 = EDGE_CURVE ( 'NONE', #430, #572, #357, .T. ) ;
#1029 = DIRECTION ( 'NONE',  ( -0.000000000000000000, -0.000000000000000000, -1.000000000000000000 ) ) ;
#1030 = VERTEX_POINT ( 'NONE', #364 ) ;
#1031 = CARTESIAN_POINT ( 'NONE',  ( -21.99999999999998934, -16.00000000000000000, 3.000000000000000000 ) ) ;
#1032 = DIRECTION ( 'NONE',  ( 0.000000000000000000, -0.000000000000000000, 1.000000000000000000 ) ) ;
#1033 = ORIENTED_EDGE ( 'NONE', *, *, #872, .T. ) ;
#1034 = ADVANCED_FACE ( 'NONE', ( #1316 ), #777, .T. ) ;
#1035 = LINE ( 'NONE', #59, #1245 ) ;
#1036 = ORIENTED_EDGE ( 'NONE', *, *, #1285, .T. ) ;
#1037 = AXIS2_PLACEMENT_3D ( 'NONE', #406, #974, #196 ) ;
#1038 = CARTESIAN_POINT ( 'NONE',  ( -22.00000000000001776, -13.00000000000000000, 0.000000000000000000 ) ) ;
#1039 = FACE_OUTER_BOUND ( 'NONE', #457, .T. ) ;
#1040 = ORIENTED_EDGE ( 'NONE', *, *, #1201, .T. ) ;
#1041 = CARTESIAN_POINT ( 'NONE',  ( 35.00000000000000000, 15.00000000000000000, 28.00000000000000000 ) ) ;
#1042 = ADVANCED_FACE ( 'NONE', ( #1109 ), #685, .T. ) ;
#1043 = VERTEX_POINT ( 'NONE', #471 ) ;
#1044 = CARTESIAN_POINT ( 'NONE',  ( 40.00000000000000000, 17.99999999999999645, 3.000000000000000000 ) ) ;
#1045 = EDGE_CURVE ( 'NONE', #572, #126, #504, .T. ) ;
#1046 = DIRECTION ( 'NONE',  ( 0.000000000000000000, -0.000000000000000000, 1.000000000000000000 ) ) ;
#1047 = ORIENTED_EDGE ( 'NONE', *, *, #1089, .F. ) ;
#1048 = VECTOR ( 'NONE', #1142, 1000.000000000000114 ) ;
#1049 = AXIS2_PLACEMENT_3D ( 'NONE', #566, #1237, #127 ) ;
#1050 = DIRECTION ( 'NONE',  ( 1.000000000000000000, 0.000000000000000000, 0.000000000000000000 ) ) ;
#1051 = EDGE_LOOP ( 'NONE', ( #645, #1311, #115, #565, #284 ) ) ;
#1052 = FACE_OUTER_BOUND ( 'NONE', #1176, .T. ) ;
#1053 = DIRECTION ( 'NONE',  ( -0.000000000000000000, -0.000000000000000000, -1.000000000000000000 ) ) ;
#1054 = EDGE_CURVE ( 'NONE', #4, #820, #332, .T. ) ;
#1055 = ORIENTED_EDGE ( 'NONE', *, *, #425, .F. ) ;
#1056 = CYLINDRICAL_SURFACE ( 'NONE', #830, 1.499999999999997780 ) ;
#1057 = VERTEX_POINT ( 'NONE', #167 ) ;
#1058 = CARTESIAN_POINT ( 'NONE',  ( -18.5, 18, 8 ) ) ;
#1059 = AXIS2_PLACEMENT_3D ( 'NONE', #667, #1234, #1310 ) ;
#1060 = CARTESIAN_POINT ( 'NONE',  ( -22.00000000000000355, 9.999999999999998224, 0.000000000000000000 ) ) ;
#1061 = VECTOR ( 'NONE', #673, 1000.000000000000000 ) ;
#1062 = ORIENTED_EDGE ( 'NONE', *, *, #1150, .T. ) ;
#1063 = AXIS2_PLACEMENT_3D ( 'NONE', #490, #598, #940 ) ;
#1064 = CYLINDRICAL_SURFACE ( 'NONE', #1037, 1.500000000000001332 ) ;
#1065 = VERTEX_POINT ( 'NONE', #1349 ) ;
#1066 = CARTESIAN_POINT ( 'NONE',  ( -40.00000000000000000, 18.00000000000000000, 0.000000000000000000 ) ) ;
#1067 = DIRECTION ( 'NONE',  ( 0.000000000000000000, 0.000000000000000000, 1.000000000000000000 ) ) ;
#1068 = ORIENTED_EDGE ( 'NONE', *, *, #123, .T. ) ;
#1069 = VECTOR ( 'NONE', #462, 1000.000000000000000 ) ;
#1070 = CARTESIAN_POINT ( 'NONE',  ( 20, 18, 20 ) ) ;
#1071 = EDGE_CURVE ( 'NONE', #1242, #83, #268, .T. ) ;
#1072 = AXIS2_PLACEMENT_3D ( 'NONE', #713, #727, #1046 ) ;
#1073 = ORIENTED_EDGE ( 'NONE', *, *, #780, .F. ) ;
#1074 = DIRECTION ( 'NONE',  ( -1.000000000000000000, 0.000000000000000000, 0.000000000000000000 ) ) ;
#1075 = DIRECTION ( 'NONE',  ( 0.000000000000000000, 1.000000000000000000, 0.000000000000000000 ) ) ;
#1076 = DIRECTION ( 'NONE',  ( 0.000000000000000000, 0.000000000000000000, 1.000000000000000000 ) ) ;
#1077 = FILL_AREA_STYLE_COLOUR ( '', #1174 ) ;
#1078 = EDGE_CURVE ( 'NONE', #1162, #420, #819, .T. ) ;
#1079 = ORIENTED_EDGE ( 'NONE', *, *, #176, .T. ) ;
#1080 = CYLINDRICAL_SURFACE ( 'NONE', #692, 1.500000000000001332 ) ;
#1081 = CARTESIAN_POINT ( 'NONE',  ( -35.00000000000000000, 18.00000000000000000, 13.00000000000000711 ) ) ;
#1082 = PRODUCT_DEFINITION_CONTEXT ( 'detailed design', #404, 'design' ) ;
#1083 = DIRECTION ( 'NONE',  ( -0.000000000000000000, -0.000000000000000000, -1.000000000000000000 ) ) ;
#1084 = FACE_OUTER_BOUND ( 'NONE', #350, .T. ) ;
#1085 = ORIENTED_EDGE ( 'NONE', *, *, #788, .F. ) ;
#1086 = FACE_OUTER_BOUND ( 'NONE', #677, .T. ) ;
#1087 = EDGE_CURVE ( 'NONE', #870, #801, #399, .T. ) ;
#1088 = FACE_BOUND ( 'NONE', #864, .T. ) ;
#1089 = EDGE_CURVE ( 'NONE', #413, #730, #376, .T. ) ;
#1090 = ORIENTED_EDGE ( 'NONE', *, *, #289, .T. ) ;
#1091 = ORIENTED_EDGE ( 'NONE', *, *, #131, .F. ) ;
#1092 = CARTESIAN_POINT ( 'NONE',  ( -26.00000000000000000, 9.999999999999998224, 0.000000000000000000 ) ) ;
#1093 = VECTOR ( 'NONE', #1083, 1000.000000000000000 ) ;
#1094 = AXIS2_PLACEMENT_3D ( 'NONE', #743, #1075, #1398 ) ;
#1095 = CARTESIAN_POINT ( 'NONE',  ( 35.00000000000000000, 18.00000000000000000, 0.000000000000000000 ) ) ;
#1096 = EDGE_CURVE ( 'NONE', #27, #569, #604, .T. ) ;
#1097 = CARTESIAN_POINT ( 'NONE',  ( -22.00000000000000000, 13.00000000000000178, 3.000000000000000000 ) ) ;
#1098 = DIRECTION ( 'NONE',  ( 0.000000000000000000, 0.000000000000000000, 1.000000000000000000 ) ) ;
#1099 = VERTEX_POINT ( 'NONE', #1041 ) ;
#1100 = CYLINDRICAL_SURFACE ( 'NONE', #1059, 1.500000000000025535 ) ;
#1101 = ORIENTED_EDGE ( 'NONE', *, *, #1259, .F. ) ;
#1102 = DIRECTION ( 'NONE',  ( -0.4472135954999577057, 0.000000000000000000, 0.8944271909999159664 ) ) ;
#1103 = CARTESIAN_POINT ( 'NONE',  ( 20.50000000000000355, -14.49999999999999467, 3.000000000000000000 ) ) ;
#1104 = EDGE_CURVE ( 'NONE', #1215, #315, #1138, .T. ) ;
#1105 = VECTOR ( 'NONE', #800, 1000.000000000000000 ) ;
#1106 = DIRECTION ( 'NONE',  ( 2.891205793294678326E-16, 0.000000000000000000, 1.000000000000000000 ) ) ;
#1107 = AXIS2_PLACEMENT_3D ( 'NONE', #146, #1353, #1021 ) ;
#1108 = EDGE_LOOP ( 'NONE', ( #1221, #50, #527, #1149 ) ) ;
#1109 = FACE_OUTER_BOUND ( 'NONE', #630, .T. ) ;
#1110 = ORIENTED_EDGE ( 'NONE', *, *, #772, .F. ) ;
#1111 = FACE_OUTER_BOUND ( 'NONE', #918, .T. ) ;
#1112 = UNCERTAINTY_MEASURE_WITH_UNIT (LENGTH_MEASURE( 1.000000000000000082E-05 ), #775, 'distance_accuracy_value', 'NONE');
#1113 = DIRECTION ( 'NONE',  ( -1.000000000000000000, 0.000000000000000000, 0.000000000000000000 ) ) ;
#1114 = CARTESIAN_POINT ( 'NONE',  ( -40.00000000000000000, 18.00000000000000000, 0.000000000000000000 ) ) ;
#1115 = VERTEX_POINT ( 'NONE', #46 ) ;
#1116 = ADVANCED_FACE ( 'NONE', ( #484 ), #1247, .F. ) ;
#1117 = DIRECTION ( 'NONE',  ( -1.000000000000000000, 0.000000000000000000, 5.782411586589356653E-16 ) ) ;
#1118 = ORIENTED_EDGE ( 'NONE', *, *, #1266, .F. ) ;
#1119 = FACE_OUTER_BOUND ( 'NONE', #957, .T. ) ;
#1120 = AXIS2_PLACEMENT_3D ( 'NONE', #395, #733, #822 ) ;
#1121 = LINE ( 'NONE', #353, #476 ) ;
#1122 = DIRECTION ( 'NONE',  ( 0.000000000000000000, 0.000000000000000000, 1.000000000000000000 ) ) ;
#1123 = ORIENTED_EDGE ( 'NONE', *, *, #274, .F. ) ;
#1124 = FACE_OUTER_BOUND ( 'NONE', #654, .T. ) ;
#1125 = ADVANCED_FACE ( 'NONE', ( #710 ), #66, .F. ) ;
#1126 = ORIENTED_EDGE ( 'NONE', *, *, #709, .F. ) ;
#1127 = FACE_OUTER_BOUND ( 'NONE', #648, .T. ) ;
#1128 = DIRECTION ( 'NONE',  ( 0.000000000000000000, -0.000000000000000000, -1.000000000000000000 ) ) ;
#1129 = CARTESIAN_POINT ( 'NONE',  ( 20.49999999999996803, 11.49999999999999822, 3.000000000000000000 ) ) ;
#1130 = CARTESIAN_POINT ( 'NONE',  ( 40.00000000000000000, 17.99999999999999645, 3.000000000000000000 ) ) ;
#1131 = AXIS2_PLACEMENT_3D ( 'NONE', #846, #93, #1413 ) ;
#1132 = ORIENTED_EDGE ( 'NONE', *, *, #616, .F. ) ;
#1133 = DIRECTION ( 'NONE',  ( 1.000000000000000000, 0.000000000000000000, 0.000000000000000000 ) ) ;
#1134 = EDGE_CURVE ( 'NONE', #1318, #217, #448, .T. ) ;
#1135 = AXIS2_PLACEMENT_3D ( 'NONE', #631, #1200, #964 ) ;
#1136 = LINE ( 'NONE', #587, #1184 ) ;
#1137 = EDGE_CURVE ( 'NONE', #341, #287, #1035, .T. ) ;
#1138 = LINE ( 'NONE', #370, #119 ) ;
#1139 = ORIENTED_EDGE ( 'NONE', *, *, #415, .F. ) ;
#1140 = LINE ( 'NONE', #486, #1283 ) ;
#1141 = VECTOR ( 'NONE', #689, 1000.000000000000000 ) ;
#1142 = DIRECTION ( 'NONE',  ( -0.4472135954999575391, 0.000000000000000000, -0.8944271909999160775 ) ) ;
#1143 = AXIS2_PLACEMENT_3D ( 'NONE', #253, #573, #1102 ) ;
#1144 = EDGE_CURVE ( 'NONE', #801, #953, #509, .T. ) ;
#1145 = CARTESIAN_POINT ( 'NONE',  ( 25.99999999999999289, 9.999999999999998224, 3.000000000000000000 ) ) ;
#1146 = ORIENTED_EDGE ( 'NONE', *, *, #22, .T. ) ;
#1147 = CARTESIAN_POINT ( 'NONE',  ( -40.00000000000000000, 15.00000000000000355, 28.00000000000000000 ) ) ;
#1148 = CARTESIAN_POINT ( 'NONE',  ( -25.99999999999999289, -14.49999999999999822, 3.000000000000000000 ) ) ;
#1149 = ORIENTED_EDGE ( 'NONE', *, *, #354, .F. ) ;
#1150 = EDGE_CURVE ( 'NONE', #1215, #708, #1172, .T. ) ;
#1151 = CARTESIAN_POINT ( 'NONE',  ( -40.00000000000000000, 15.00000000000000000, 3.000000000000000444 ) ) ;
#1152 = EDGE_LOOP ( 'NONE', ( #1324, #132, #652, #1017 ) ) ;
#1153 =( GEOMETRIC_REPRESENTATION_CONTEXT ( 3 ) GLOBAL_UNCERTAINTY_ASSIGNED_CONTEXT ( ( #1112 ) ) GLOBAL_UNIT_ASSIGNED_CONTEXT ( ( #775, #882, #575 ) ) REPRESENTATION_CONTEXT ( 'NONE', 'WORKASPACE' ) );
#1154 = DIRECTION ( 'NONE',  ( 0.000000000000000000, 0.000000000000000000, 1.000000000000000000 ) ) ;
#1155 = CARTESIAN_POINT ( 'NONE',  ( 22.00000000000000355, -14.49999999999999467, 0.000000000000000000 ) ) ;
#1156 = ORIENTED_EDGE ( 'NONE', *, *, #726, .T. ) ;
#1157 = CARTESIAN_POINT ( 'NONE',  ( -22.00000000000000000, 13.00000000000000178, 0.000000000000000000 ) ) ;
#1158 = EDGE_CURVE ( 'NONE', #1388, #633, #852, .T. ) ;
#1159 = ORIENTED_EDGE ( 'NONE', *, *, #362, .T. ) ;
#1160 = DIRECTION ( 'NONE',  ( 0.000000000000000000, -0.000000000000000000, 1.000000000000000000 ) ) ;
#1161 = FACE_OUTER_BOUND ( 'NONE', #985, .T. ) ;
#1162 = VERTEX_POINT ( 'NONE', #1260 ) ;
#1163 = VECTOR ( 'NONE', #278, 1000.000000000000000 ) ;
#1164 = CARTESIAN_POINT ( 'NONE',  ( 21.99999999999999645, 11.49999999999999822, 3.000000000000000000 ) ) ;
#1165 = ORIENTED_EDGE ( 'NONE', *, *, #1301, .F. ) ;
#1166 = FACE_OUTER_BOUND ( 'NONE', #684, .T. ) ;
#1167 = DIRECTION ( 'NONE',  ( 0.000000000000000000, 0.000000000000000000, 1.000000000000000000 ) ) ;
#1168 = EDGE_LOOP ( 'NONE', ( #1170, #1126, #275, #140 ) ) ;
#1169 = CARTESIAN_POINT ( 'NONE',  ( -22.00000000000000355, 9.999999999999998224, 3.000000000000000000 ) ) ;
#1170 = ORIENTED_EDGE ( 'NONE', *, *, #87, .F. ) ;
#1171 = CARTESIAN_POINT ( 'NONE',  ( 22.00000000000000355, -15.99999999999999289, 0.000000000000000000 ) ) ;
#1172 = CIRCLE ( 'NONE', #1354, 1.499999999999997780 ) ;
#1173 = DIRECTION ( 'NONE',  ( -0.000000000000000000, -0.000000000000000000, -1.000000000000000000 ) ) ;
#1174 = COLOUR_RGB ( '',1.000000000000000000, 1.000000000000000000, 1.000000000000000000 ) ;
#1175 = EDGE_CURVE ( 'NONE', #1313, #557, #97, .T. ) ;
#1176 = EDGE_LOOP ( 'NONE', ( #243, #329, #85, #1132 ) ) ;
#1177 = AXIS2_PLACEMENT_3D ( 'NONE', #125, #676, #35 ) ;
#1178 = DIRECTION ( 'NONE',  ( -2.891205793294678326E-16, -0.000000000000000000, -1.000000000000000000 ) ) ;
#1179 = VERTEX_POINT ( 'NONE', #1157 ) ;
#1180 = CARTESIAN_POINT ( 'NONE',  ( -25.99999999999998934, -16.00000000000000000, 0.000000000000000000 ) ) ;
#1181 = CARTESIAN_POINT ( 'NONE',  ( -26.00000000000000000, 13.00000000000000178, 0.000000000000000000 ) ) ;
#1182 = CARTESIAN_POINT ( 'NONE',  ( 26.00000000000000355, -12.99999999999999822, 3.000000000000000000 ) ) ;
#1183 = EDGE_CURVE ( 'NONE', #1242, #883, #352, .T. ) ;
#1184 = VECTOR ( 'NONE', #481, 1000.000000000000000 ) ;
#1185 = DIRECTION ( 'NONE',  ( 0.000000000000000000, 0.000000000000000000, 1.000000000000000000 ) ) ;
#1186 = VECTOR ( 'NONE', #110, 1000.000000000000000 ) ;
#1187 = ORIENTED_EDGE ( 'NONE', *, *, #772, .T. ) ;
#1188 = CARTESIAN_POINT ( 'NONE',  ( -35.00000000000000000, 15.00000000000000000, 0.000000000000000000 ) ) ;
#1189 = CARTESIAN_POINT ( 'NONE',  ( 21.99999999999999645, 13.00000000000002665, 3.000000000000000000 ) ) ;
#1190 = LINE ( 'NONE', #439, #1093 ) ;
#1191 = CARTESIAN_POINT ( 'NONE',  ( -19.999999999999989, 15, 20 ) ) ;
#1192 = ORIENTED_EDGE ( 'NONE', *, *, #1087, .F. ) ;
#1193 = EDGE_CURVE ( 'NONE', #489, #1392, #647, .T. ) ;
#1194 = CARTESIAN_POINT ( 'NONE',  ( -35.00000000000000000, 15.00000000000000355, 28.00000000000000000 ) ) ;
#1195 = CARTESIAN_POINT ( 'NONE',  ( -18.5, 15, 8 ) ) ;
#1196 = EDGE_LOOP ( 'NONE', ( #1033, #1407, #324, #1079, #436 ) ) ;
#1197 = CIRCLE ( 'NONE', #579, 1.499999999999997780 ) ;
#1198 = CARTESIAN_POINT ( 'NONE',  ( 26.00000000000000355, -14.49999999999999467, 0.000000000000000000 ) ) ;
#1199 = ORIENTED_EDGE ( 'NONE', *, *, #972, .F. ) ;
#1200 = DIRECTION ( 'NONE',  ( 0.000000000000000000, 0.000000000000000000, 1.000000000000000000 ) ) ;
#1201 = EDGE_CURVE ( 'NONE', #1057, #235, #669, .T. ) ;
#1202 = CARTESIAN_POINT ( 'NONE',  ( -25.99999999999998934, -16.00000000000000000, 0.000000000000000000 ) ) ;
#1203 = ORIENTED_EDGE ( 'NONE', *, *, #616, .T. ) ;
#1204 = AXIS2_PLACEMENT_3D ( 'NONE', #1352, #1020, #38 ) ;
#1205 = ORIENTED_EDGE ( 'NONE', *, *, #1357, .F. ) ;
#1206 = LINE ( 'NONE', #1130, #555 ) ;
#1207 = CIRCLE ( 'NONE', #86, 1.500000000000001332 ) ;
#1208 = ORIENTED_EDGE ( 'NONE', *, *, #230, .F. ) ;
#1209 = DIRECTION ( 'NONE',  ( 2.891205793294678326E-16, 0.000000000000000000, 1.000000000000000000 ) ) ;
#1210 = ADVANCED_FACE ( 'NONE', ( #1084 ), #1056, .F. ) ;
#1211 = ORIENTED_EDGE ( 'NONE', *, *, #674, .T. ) ;
#1212 = CARTESIAN_POINT ( 'NONE',  ( -35.00000000000000000, 18.00000000000000000, 28.00000000000000000 ) ) ;
#1213 = EDGE_LOOP ( 'NONE', ( #190, #301, #47, #549 ) ) ;
#1214 = CYLINDRICAL_SURFACE ( 'NONE', #851, 1.499999999999997780 ) ;
#1215 = VERTEX_POINT ( 'NONE', #859 ) ;
#1216 = LINE ( 'NONE', #794, #500 ) ;
#1217 = FACE_OUTER_BOUND ( 'NONE', #824, .T. ) ;
#1218 = ADVANCED_FACE ( 'NONE', ( #738 ), #646, .F. ) ;
#1219 = ORIENTED_EDGE ( 'NONE', *, *, #79, .F. ) ;
#1220 = CARTESIAN_POINT ( 'NONE',  ( -33.20000000000001705, 15.00000000000000000, 16.59999999999999076 ) ) ;
#1221 = ORIENTED_EDGE ( 'NONE', *, *, #1235, .T. ) ;
#1222 = LINE ( 'NONE', #1351, #1393 ) ;
#1223 = PLANE ( 'NONE',  #1025 ) ;
#1224 = LINE ( 'NONE', #1331, #627 ) ;
#1225 = EDGE_CURVE ( 'NONE', #572, #946, #72, .T. ) ;
#1226 = ORIENTED_EDGE ( 'NONE', *, *, #535, .F. ) ;
#1227 = DIRECTION ( 'NONE',  ( 1.000000000000000000, 0.000000000000000000, 0.000000000000000000 ) ) ;
#1228 = ORIENTED_EDGE ( 'NONE', *, *, #62, .F. ) ;
#1229 = FACE_OUTER_BOUND ( 'NONE', #1213, .T. ) ;
#1230 = CIRCLE ( 'NONE', #680, 1.499999999999997780 ) ;
#1231 = VECTOR ( 'NONE', #48, 1000.000000000000000 ) ;
#1232 = PLANE ( 'NONE',  #977 ) ;
#1233 = PRODUCT_DEFINITION ( 'UNKNOWN', '', #737, #1082 ) ;
#1234 = DIRECTION ( 'NONE',  ( -0.000000000000000000, -0.000000000000000000, -1.000000000000000000 ) ) ;
#1235 = EDGE_CURVE ( 'NONE', #411, #1318, #532, .T. ) ;
#1236 = ORIENTED_EDGE ( 'NONE', *, *, #222, .T. ) ;
#1237 = DIRECTION ( 'NONE',  ( 0.000000000000000000, 1.000000000000000000, 0.000000000000000000 ) ) ;
#1238 = DIRECTION ( 'NONE',  ( -0.000000000000000000, -0.000000000000000000, -1.000000000000000000 ) ) ;
#1239 = AXIS2_PLACEMENT_3D ( 'NONE', #116, #1117, #13 ) ;
#1240 = DIRECTION ( 'NONE',  ( 0.000000000000000000, 0.000000000000000000, 1.000000000000000000 ) ) ;
#1241 = VECTOR ( 'NONE', #1106, 1000.000000000000000 ) ;
#1242 = VERTEX_POINT ( 'NONE', #866 ) ;
#1243 = LINE ( 'NONE', #607, #725 ) ;
#1244 = EDGE_CURVE ( 'NONE', #407, #1388, #188, .T. ) ;
#1245 = VECTOR ( 'NONE', #497, 1000.000000000000000 ) ;
#1246 = DIRECTION ( 'NONE',  ( 0.000000000000000000, 0.000000000000000000, -1.000000000000000000 ) ) ;
#1247 = CYLINDRICAL_SURFACE ( 'NONE', #697, 1.500000000000001332 ) ;
#1248 = ORIENTED_EDGE ( 'NONE', *, *, #425, .T. ) ;
#1249 = CARTESIAN_POINT ( 'NONE',  ( -35.00000000000000000, 18.00000000000000000, -0.000000000000000000 ) ) ;
#1250 = EDGE_CURVE ( 'NONE', #1162, #36, #1356, .T. ) ;
#1251 = AXIS2_PLACEMENT_3D ( 'NONE', #178, #63, #1167 ) ;
#1252 = PLANE ( 'NONE',  #1072 ) ;
#1253 = VERTEX_POINT ( 'NONE', #1169 ) ;
#1254 = DIRECTION ( 'NONE',  ( -0.000000000000000000, 1.000000000000000000, -0.000000000000000000 ) ) ;
#1255 = VERTEX_POINT ( 'NONE', #323 ) ;
#1256 = CARTESIAN_POINT ( 'NONE',  ( 18.500000000000007, 17.999999999999996, 8 ) ) ;
#1257 = CARTESIAN_POINT ( 'NONE',  ( -22.00000000000000000, 13.00000000000000178, 3.000000000000000000 ) ) ;
#1258 = ORIENTED_EDGE ( 'NONE', *, *, #209, .F. ) ;
#1259 = EDGE_CURVE ( 'NONE', #197, #235, #758, .T. ) ;
#1260 = CARTESIAN_POINT ( 'NONE',  ( 26.00000000000000355, -15.99999999999999289, 3.000000000000000000 ) ) ;
#1261 = ORIENTED_EDGE ( 'NONE', *, *, #1078, .T. ) ;
#1262 = VECTOR ( 'NONE', #80, 1000.000000000000000 ) ;
#1263 = DIRECTION ( 'NONE',  ( 0.000000000000000000, -0.000000000000000000, -1.000000000000000000 ) ) ;
#1264 = DIRECTION ( 'NONE',  ( 0.000000000000000000, 0.000000000000000000, -1.000000000000000000 ) ) ;
#1265 = ORIENTED_EDGE ( 'NONE', *, *, #1225, .T. ) ;
#1266 = EDGE_CURVE ( 'NONE', #618, #530, #261, .T. ) ;
#1267 = CARTESIAN_POINT ( 'NONE',  ( 20, 18, 8 ) ) ;
#1268 = ORIENTED_EDGE ( 'NONE', *, *, #185, .F. ) ;
#1269 = CARTESIAN_POINT ( 'NONE',  ( -20.000000000000004, 18, 8 ) ) ;
#1270 = CARTESIAN_POINT ( 'NONE',  ( -39.99999999999999289, -20.00000000000000355, 3.000000000000000000 ) ) ;
#1271 = ORIENTED_EDGE ( 'NONE', *, *, #535, .T. ) ;
#1272 = AXIS2_PLACEMENT_3D ( 'NONE', #1304, #651, #1067 ) ;
#1273 = DIRECTION ( 'NONE',  ( 1.000000000000000000, 0.000000000000000000, 0.000000000000000000 ) ) ;
#1274 = ADVANCED_FACE ( 'NONE', ( #525 ), #1064, .F. ) ;
#1275 = ORIENTED_EDGE ( 'NONE', *, *, #1340, .F. ) ;
#1276 = DIRECTION ( 'NONE',  ( -0.000000000000000000, -0.000000000000000000, -1.000000000000000000 ) ) ;
#1277 = EDGE_CURVE ( 'NONE', #217, #1242, #949, .T. ) ;
#1278 = DIRECTION ( 'NONE',  ( 5.782411586589356653E-16, 0.000000000000000000, 1.000000000000000000 ) ) ;
#1279 = ORIENTED_EDGE ( 'NONE', *, *, #563, .F. ) ;
#1280 = DIRECTION ( 'NONE',  ( 0.000000000000000000, 0.000000000000000000, 1.000000000000000000 ) ) ;
#1281 = ORIENTED_EDGE ( 'NONE', *, *, #274, .T. ) ;
#1282 = LINE ( 'NONE', #554, #1105 ) ;
#1283 = VECTOR ( 'NONE', #821, 1000.000000000000000 ) ;
#1284 = LINE ( 'NONE', #863, #818 ) ;
#1285 = EDGE_CURVE ( 'NONE', #834, #1373, #296, .T. ) ;
#1286 = ORIENTED_EDGE ( 'NONE', *, *, #1078, .F. ) ;
#1287 = CARTESIAN_POINT ( 'NONE',  ( -40.00000000000000000, 18.00000000000000000, 3.000000000000000000 ) ) ;
#1288 = ORIENTED_EDGE ( 'NONE', *, *, #1158, .F. ) ;
#1289 = DIRECTION ( 'NONE',  ( -0.000000000000000000, -0.000000000000000000, -1.000000000000000000 ) ) ;
#1290 = FACE_BOUND ( 'NONE', #495, .T. ) ;
#1291 = ADVANCED_FACE ( 'NONE', ( #955 ), #418, .F. ) ;
#1292 = VERTEX_POINT ( 'NONE', #202 ) ;
#1293 = VECTOR ( 'NONE', #1238, 1000.000000000000000 ) ;
#1294 = SURFACE_SIDE_STYLE ('',( #427 ) ) ;
#1295 = CIRCLE ( 'NONE', #1049, 1.499999999999997780 ) ;
#1296 = EDGE_LOOP ( 'NONE', ( #1040, #774, #1248, #577, #109 ) ) ;
#1297 = LINE ( 'NONE', #312, #375 ) ;
#1298 = CARTESIAN_POINT ( 'NONE',  ( 26.00000000000000355, -15.99999999999999289, 0.000000000000000000 ) ) ;
#1299 = ORIENTED_EDGE ( 'NONE', *, *, #31, .T. ) ;
#1300 = CARTESIAN_POINT ( 'NONE',  ( 26.00000000000000355, -14.49999999999999467, 3.000000000000000000 ) ) ;
#1301 = EDGE_CURVE ( 'NONE', #950, #407, #444, .T. ) ;
#1302 = ORIENTED_EDGE ( 'NONE', *, *, #1277, .T. ) ;
#1303 = CARTESIAN_POINT ( 'NONE',  ( -39.99999999999999289, -20.00000000000000355, 0.000000000000000000 ) ) ;
#1304 = CARTESIAN_POINT ( 'NONE',  ( -19.999999999999989, 15, 20 ) ) ;
#1305 = VECTOR ( 'NONE', #28, 1000.000000000000000 ) ;
#1306 = ORIENTED_EDGE ( 'NONE', *, *, #624, .F. ) ;
#1307 = MECHANICAL_DESIGN_GEOMETRIC_PRESENTATION_REPRESENTATION (  '', ( #328 ), #1153 ) ;
#1308 = VECTOR ( 'NONE', #192, 1000.000000000000000 ) ;
#1309 = ORIENTED_EDGE ( 'NONE', *, *, #928, .T. ) ;
#1310 = DIRECTION ( 'NONE',  ( -1.000000000000000000, 0.000000000000000000, 0.000000000000000000 ) ) ;
#1311 = ORIENTED_EDGE ( 'NONE', *, *, #634, .F. ) ;
#1312 = LINE ( 'NONE', #1095, #1186 ) ;
#1313 = VERTEX_POINT ( 'NONE', #641 ) ;
#1314 = CARTESIAN_POINT ( 'NONE',  ( -26.00000000000000000, 11.50000000000000000, 0.000000000000000000 ) ) ;
#1315 = ORIENTED_EDGE ( 'NONE', *, *, #113, .T. ) ;
#1316 = FACE_OUTER_BOUND ( 'NONE', #1152, .T. ) ;
#1317 = AXIS2_PLACEMENT_3D ( 'NONE', #914, #1133, #1011 ) ;
#1318 = VERTEX_POINT ( 'NONE', #968 ) ;
#1319 = PLANE ( 'NONE',  #1143 ) ;
#1320 = MANIFOLD_SOLID_BREP ( '\X2\52079664\X0\-\X2\62c94f38\X0\6', #589 ) ;
#1321 = EDGE_CURVE ( 'NONE', #36, #870, #106, .T. ) ;
#1322 = CARTESIAN_POINT ( 'NONE',  ( -40.00000000000000000, 15.00000000000000355, 28.00000000000000000 ) ) ;
#1323 = CARTESIAN_POINT ( 'NONE',  ( -40.00000000000000000, 18.00000000000000000, 3.000000000000000000 ) ) ;
#1324 = ORIENTED_EDGE ( 'NONE', *, *, #1137, .F. ) ;
#1325 = LINE ( 'NONE', #20, #1305 ) ;
#1326 = ORIENTED_EDGE ( 'NONE', *, *, #1071, .T. ) ;
#1327 = PLANE ( 'NONE',  #1317 ) ;
#1328 = ADVANCED_FACE ( 'NONE', ( #531 ), #463, .F. ) ;
#1329 = DIRECTION ( 'NONE',  ( -0.000000000000000000, -0.000000000000000000, -1.000000000000000000 ) ) ;
#1330 = VECTOR ( 'NONE', #798, 1000.000000000000000 ) ;
#1331 = CARTESIAN_POINT ( 'NONE',  ( -35.00000000000000000, 15.00000000000000000, 13.00000000000000711 ) ) ;
#1332 = ORIENTED_EDGE ( 'NONE', *, *, #159, .T. ) ;
#1333 = PLANE ( 'NONE',  #10 ) ;
#1334 = EDGE_LOOP ( 'NONE', ( #1275, #1286, #1000, #898 ) ) ;
#1335 = CARTESIAN_POINT ( 'NONE',  ( -25.99999999999999289, -13.00000000000000000, 3.000000000000000000 ) ) ;
#1336 = CARTESIAN_POINT ( 'NONE',  ( 21.99999999999999645, 11.49999999999999822, 0.000000000000000000 ) ) ;
#1337 = ADVANCED_FACE ( 'NONE', ( #789, #766, #246 ), #456, .F. ) ;
#1338 = ADVANCED_FACE ( 'NONE', ( #17 ), #873, .F. ) ;
#1339 = FACE_BOUND ( 'NONE', #1296, .T. ) ;
#1340 = EDGE_CURVE ( 'NONE', #420, #870, #1197, .T. ) ;
#1341 = LINE ( 'NONE', #465, #400 ) ;
#1342 = EDGE_LOOP ( 'NONE', ( #1405, #1073, #164, #1187, #699, #11, #1306, #171 ) ) ;
#1343 = CARTESIAN_POINT ( 'NONE',  ( 25.99999999999999645, 13.00000000000002842, 3.000000000000000000 ) ) ;
#1344 = VECTOR ( 'NONE', #120, 1000.000000000000000 ) ;
#1345 = VECTOR ( 'NONE', #986, 1000.000000000000000 ) ;
#1346 = CARTESIAN_POINT ( 'NONE',  ( 20.50000000000000355, -14.49999999999999467, 3.000000000000000000 ) ) ;
#1347 = PRODUCT_CONTEXT ( 'NONE', #423, 'mechanical' ) ;
#1348 = EDGE_CURVE ( 'NONE', #83, #341, #421, .T. ) ;
#1349 = CARTESIAN_POINT ( 'NONE',  ( -39.99999999999999289, -20.00000000000000355, 0.000000000000000000 ) ) ;
#1350 = ORIENTED_EDGE ( 'NONE', *, *, #815, .F. ) ;
#1351 = CARTESIAN_POINT ( 'NONE',  ( -39.99999999999999289, -20.00000000000000355, 3.000000000000000000 ) ) ;
#1352 = CARTESIAN_POINT ( 'NONE',  ( -22.00000000000000355, 11.50000000000000000, 0.000000000000000000 ) ) ;
#1353 = DIRECTION ( 'NONE',  ( 0.000000000000000000, 0.000000000000000000, 1.000000000000000000 ) ) ;
#1354 = AXIS2_PLACEMENT_3D ( 'NONE', #1378, #52, #1240 ) ;
#1355 = CARTESIAN_POINT ( 'NONE',  ( 22.00000000000000355, -12.99999999999999822, 0.000000000000000000 ) ) ;
#1356 = CIRCLE ( 'NONE', #759, 1.499999999999997780 ) ;
#1357 = EDGE_CURVE ( 'NONE', #675, #319, #695, .T. ) ;
#1358 = ORIENTED_EDGE ( 'NONE', *, *, #1387, .F. ) ;
#1359 = DIRECTION ( 'NONE',  ( 0.000000000000000000, 0.000000000000000000, 1.000000000000000000 ) ) ;
#1360 = AXIS2_PLACEMENT_3D ( 'NONE', #1188, #306, #976 ) ;
#1361 = CARTESIAN_POINT ( 'NONE',  ( 21.500000000000004, 15, 20 ) ) ;
#1362 = ORIENTED_EDGE ( 'NONE', *, *, #1096, .F. ) ;
#1363 = DIRECTION ( 'NONE',  ( 1.000000000000000000, 0.000000000000000000, 0.000000000000000000 ) ) ;
#1364 = ORIENTED_EDGE ( 'NONE', *, *, #475, .F. ) ;
#1365 = CARTESIAN_POINT ( 'NONE',  ( 20, 15, 20 ) ) ;
#1366 = VECTOR ( 'NONE', #76, 1000.000000000000000 ) ;
#1367 = CARTESIAN_POINT ( 'NONE',  ( -19.999999999999989, 18, 21.5 ) ) ;
#1368 = EDGE_CURVE ( 'NONE', #746, #801, #347, .T. ) ;
#1369 = CIRCLE ( 'NONE', #978, 1.499999999999997780 ) ;
#1370 = ORIENTED_EDGE ( 'NONE', *, *, #397, .F. ) ;
#1371 = APPLICATION_PROTOCOL_DEFINITION ( 'draft international standard', 'automotive_design', 1998, #404 ) ;
#1372 = DIRECTION ( 'NONE',  ( 1.000000000000000000, 0.000000000000000000, 0.000000000000000000 ) ) ;
#1373 = VERTEX_POINT ( 'NONE', #1212 ) ;
#1374 = DIRECTION ( 'NONE',  ( -0.000000000000000000, 1.000000000000000000, -0.000000000000000000 ) ) ;
#1375 = CARTESIAN_POINT ( 'NONE',  ( -26.00000000000000000, 9.999999999999998224, 3.000000000000000000 ) ) ;
#1376 = EDGE_CURVE ( 'NONE', #248, #1065, #561, .T. ) ;
#1377 = ORIENTED_EDGE ( 'NONE', *, *, #597, .F. ) ;
#1378 = CARTESIAN_POINT ( 'NONE',  ( 20, 15, 20 ) ) ;
#1379 = ORIENTED_EDGE ( 'NONE', *, *, #928, .F. ) ;
#1380 = PRESENTATION_LAYER_ASSIGNMENT (  '', '', ( #328 ) ) ;
#1381 = FACE_OUTER_BOUND ( 'NONE', #204, .T. ) ;
#1382 = CARTESIAN_POINT ( 'NONE',  ( -26.00000000000000000, 9.999999999999998224, 0.000000000000000000 ) ) ;
#1383 = VECTOR ( 'NONE', #832, 1000.000000000000000 ) ;
#1384 = ORIENTED_EDGE ( 'NONE', *, *, #1087, .T. ) ;
#1385 = EDGE_CURVE ( 'NONE', #642, #569, #653, .T. ) ;
#1386 = CARTESIAN_POINT ( 'NONE',  ( 21.5, 18, 8 ) ) ;
#1387 = EDGE_CURVE ( 'NONE', #820, #1162, #1014, .T. ) ;
#1388 = VERTEX_POINT ( 'NONE', #129 ) ;
#1389 = CARTESIAN_POINT ( 'NONE',  ( 22.00000000000000355, -12.99999999999999822, 3.000000000000000000 ) ) ;
#1390 = DIRECTION ( 'NONE',  ( 0.000000000000000000, 0.000000000000000000, 1.000000000000000000 ) ) ;
#1391 = VECTOR ( 'NONE', #1246, 1000.000000000000000 ) ;
#1392 = VERTEX_POINT ( 'NONE', #26 ) ;
#1393 = VECTOR ( 'NONE', #1018, 1000.000000000000000 ) ;
#1394 = DIRECTION ( 'NONE',  ( 1.826024711554533420E-16, -1.000000000000000000, 0.000000000000000000 ) ) ;
#1395 = EDGE_CURVE ( 'NONE', #430, #451, #1224, .T. ) ;
#1396 = EDGE_LOOP ( 'NONE', ( #1364, #105, #449, #405 ) ) ;
#1397 = DIRECTION ( 'NONE',  ( 1.000000000000000000, 0.000000000000000000, 0.000000000000000000 ) ) ;
#1398 = DIRECTION ( 'NONE',  ( 0.000000000000000000, 0.000000000000000000, 1.000000000000000000 ) ) ;
#1399 = CARTESIAN_POINT ( 'NONE',  ( 21.99999999999999645, 9.999999999999971578, 0.000000000000000000 ) ) ;
#1400 = CARTESIAN_POINT ( 'NONE',  ( 21.99999999999999645, 11.49999999999999822, 3.000000000000000000 ) ) ;
#1401 = ORIENTED_EDGE ( 'NONE', *, *, #230, .T. ) ;
#1402 = CARTESIAN_POINT ( 'NONE',  ( -25.99999999999999289, -13.00000000000000000, 3.000000000000000000 ) ) ;
#1403 = ADVANCED_FACE ( 'NONE', ( #682, #1339, #361, #216, #552 ), #546, .F. ) ;
#1404 = DIRECTION ( 'NONE',  ( -0.000000000000000000, -0.000000000000000000, -1.000000000000000000 ) ) ;
#1405 = ORIENTED_EDGE ( 'NONE', *, *, #397, .T. ) ;
#1406 = FILL_AREA_STYLE ('',( #1077 ) ) ;
#1407 = ORIENTED_EDGE ( 'NONE', *, *, #1357, .T. ) ;
#1408 = LINE ( 'NONE', #637, #668 ) ;
#1409 = ORIENTED_EDGE ( 'NONE', *, *, #1193, .T. ) ;
#1410 = DIRECTION ( 'NONE',  ( 1.000000000000000000, 0.000000000000000000, 0.000000000000000000 ) ) ;
#1411 = EDGE_CURVE ( 'NONE', #1318, #489, #496, .T. ) ;
#1412 = CARTESIAN_POINT ( 'NONE',  ( 40.00000000000000000, 17.99999999999999645, 0.000000000000000000 ) ) ;
#1413 = DIRECTION ( 'NONE',  ( -1.000000000000000000, 0.000000000000000000, 0.000000000000000000 ) ) ;
#1414 = ORIENTED_EDGE ( 'NONE', *, *, #54, .F. ) ;
#1415 = DIRECTION ( 'NONE',  ( 1.000000000000000000, 0.000000000000000000, 0.000000000000000000 ) ) ;
#1416 = LINE ( 'NONE', #1181, #1345 ) ;
#1417 = DIRECTION ( 'NONE',  ( -1.000000000000000000, -0.000000000000000000, -0.000000000000000000 ) ) ;
ENDSEC;
END-ISO-10303-21;
